<?xml version="1.0" encoding="UTF-8" standalone="no"?>
<!DOCTYPE svg PUBLIC "-//W3C//DTD SVG 1.1//EN"
 "http://www.w3.org/Graphics/SVG/1.1/DTD/svg11.dtd">
<!-- Generated by graphviz version 2.47.2 (20210527.1257)
 -->
<!-- Title: snakemake_dag Pages: 1 -->
<svg width="3073pt" height="620pt"
 viewBox="0.00 0.00 3073.00 620.00" xmlns="http://www.w3.org/2000/svg" xmlns:xlink="http://www.w3.org/1999/xlink">
<g id="graph0" class="graph" transform="scale(1 1) rotate(0) translate(4 616)">
<title>snakemake_dag</title>
<polygon fill="white" stroke="transparent" points="-4,4 -4,-616 3069,-616 3069,4 -4,4"/>
<!-- 0 -->
<g id="node1" class="node">
<title>0</title>
<path fill="none" stroke="#d85656" stroke-width="2" d="M1464.5,-36C1464.5,-36 1434.5,-36 1434.5,-36 1428.5,-36 1422.5,-30 1422.5,-24 1422.5,-24 1422.5,-12 1422.5,-12 1422.5,-6 1428.5,0 1434.5,0 1434.5,0 1464.5,0 1464.5,0 1470.5,0 1476.5,-6 1476.5,-12 1476.5,-12 1476.5,-24 1476.5,-24 1476.5,-30 1470.5,-36 1464.5,-36"/>
<text text-anchor="middle" x="1449.5" y="-15.5" font-family="sans" font-size="10.00">all</text>
</g>
<!-- 1 -->
<g id="node2" class="node">
<title>1</title>
<path fill="none" stroke="#56c9d8" stroke-width="2" stroke-dasharray="5,2" d="M69,-180C69,-180 12,-180 12,-180 6,-180 0,-174 0,-168 0,-168 0,-156 0,-156 0,-150 6,-144 12,-144 12,-144 69,-144 69,-144 75,-144 81,-150 81,-156 81,-156 81,-168 81,-168 81,-174 75,-180 69,-180"/>
<text text-anchor="middle" x="40.5" y="-159.5" font-family="sans" font-size="10.00">raw_fastq_qc</text>
</g>
<!-- 1&#45;&gt;0 -->
<g id="edge1" class="edge">
<title>1&#45;&gt;0</title>
<path fill="none" stroke="grey" stroke-width="2" d="M56.82,-143.71C78.26,-122.34 118.19,-86.95 160.5,-72 281.1,-29.39 1212.72,-20.62 1412.05,-19.23"/>
<polygon fill="grey" stroke="grey" stroke-width="2" points="1412.32,-22.73 1422.29,-19.16 1412.27,-15.73 1412.32,-22.73"/>
</g>
<!-- 2 -->
<g id="node3" class="node">
<title>2</title>
<path fill="none" stroke="#59d856" stroke-width="2" stroke-dasharray="5,2" d="M150.5,-612C150.5,-612 46.5,-612 46.5,-612 40.5,-612 34.5,-606 34.5,-600 34.5,-600 34.5,-588 34.5,-588 34.5,-582 40.5,-576 46.5,-576 46.5,-576 150.5,-576 150.5,-576 156.5,-576 162.5,-582 162.5,-588 162.5,-588 162.5,-600 162.5,-600 162.5,-606 156.5,-612 150.5,-612"/>
<text text-anchor="middle" x="98.5" y="-597" font-family="sans" font-size="10.00">rename_fastq</text>
<text text-anchor="middle" x="98.5" y="-586" font-family="sans" font-size="10.00">sample: CM_C4_D28_1</text>
</g>
<!-- 2&#45;&gt;1 -->
<g id="edge39" class="edge">
<title>2&#45;&gt;1</title>
<path fill="none" stroke="grey" stroke-width="2" d="M90,-575.99C77.73,-549.82 56.5,-497.79 56.5,-451 56.5,-451 56.5,-451 56.5,-305 56.5,-264.96 50.14,-218.97 45.44,-190.45"/>
<polygon fill="grey" stroke="grey" stroke-width="2" points="48.86,-189.69 43.74,-180.42 41.96,-190.86 48.86,-189.69"/>
</g>
<!-- 14 -->
<g id="node15" class="node">
<title>14</title>
<path fill="none" stroke="#c6d856" stroke-width="2" stroke-dasharray="5,2" d="M168.5,-540C168.5,-540 112.5,-540 112.5,-540 106.5,-540 100.5,-534 100.5,-528 100.5,-528 100.5,-516 100.5,-516 100.5,-510 106.5,-504 112.5,-504 112.5,-504 168.5,-504 168.5,-504 174.5,-504 180.5,-510 180.5,-516 180.5,-516 180.5,-528 180.5,-528 180.5,-534 174.5,-540 168.5,-540"/>
<text text-anchor="middle" x="140.5" y="-519.5" font-family="sans" font-size="10.00">trim_adapter</text>
</g>
<!-- 2&#45;&gt;14 -->
<g id="edge46" class="edge">
<title>2&#45;&gt;14</title>
<path fill="none" stroke="grey" stroke-width="2" d="M108.88,-575.7C113.76,-567.56 119.69,-557.69 125.08,-548.7"/>
<polygon fill="grey" stroke="grey" stroke-width="2" points="128.09,-550.48 130.24,-540.1 122.09,-546.88 128.09,-550.48"/>
</g>
<!-- 3 -->
<g id="node4" class="node">
<title>3</title>
<path fill="none" stroke="#56c9d8" stroke-width="2" stroke-dasharray="5,2" d="M346,-108C346,-108 289,-108 289,-108 283,-108 277,-102 277,-96 277,-96 277,-84 277,-84 277,-78 283,-72 289,-72 289,-72 346,-72 346,-72 352,-72 358,-78 358,-84 358,-84 358,-96 358,-96 358,-102 352,-108 346,-108"/>
<text text-anchor="middle" x="317.5" y="-87.5" font-family="sans" font-size="10.00">raw_fastq_qc</text>
</g>
<!-- 3&#45;&gt;0 -->
<g id="edge2" class="edge">
<title>3&#45;&gt;0</title>
<path fill="none" stroke="grey" stroke-width="2" d="M358.18,-74.14C361.31,-73.31 364.44,-72.58 367.5,-72 574.04,-32.63 1245.18,-21.6 1411.8,-19.44"/>
<polygon fill="grey" stroke="grey" stroke-width="2" points="1412.08,-22.94 1422.03,-19.31 1411.99,-15.94 1412.08,-22.94"/>
</g>
<!-- 4 -->
<g id="node5" class="node">
<title>4</title>
<path fill="none" stroke="#59d856" stroke-width="2" stroke-dasharray="5,2" d="M424.5,-612C424.5,-612 320.5,-612 320.5,-612 314.5,-612 308.5,-606 308.5,-600 308.5,-600 308.5,-588 308.5,-588 308.5,-582 314.5,-576 320.5,-576 320.5,-576 424.5,-576 424.5,-576 430.5,-576 436.5,-582 436.5,-588 436.5,-588 436.5,-600 436.5,-600 436.5,-606 430.5,-612 424.5,-612"/>
<text text-anchor="middle" x="372.5" y="-597" font-family="sans" font-size="10.00">rename_fastq</text>
<text text-anchor="middle" x="372.5" y="-586" font-family="sans" font-size="10.00">sample: CM_C4_D28_2</text>
</g>
<!-- 4&#45;&gt;3 -->
<g id="edge40" class="edge">
<title>4&#45;&gt;3</title>
<path fill="none" stroke="grey" stroke-width="2" d="M365.62,-575.83C355.68,-549.44 338.5,-497.14 338.5,-451 338.5,-451 338.5,-451 338.5,-233 338.5,-192.78 330.15,-146.84 323.99,-118.37"/>
<polygon fill="grey" stroke="grey" stroke-width="2" points="327.35,-117.36 321.75,-108.37 320.51,-118.89 327.35,-117.36"/>
</g>
<!-- 16 -->
<g id="node17" class="node">
<title>16</title>
<path fill="none" stroke="#c6d856" stroke-width="2" stroke-dasharray="5,2" d="M434.5,-540C434.5,-540 378.5,-540 378.5,-540 372.5,-540 366.5,-534 366.5,-528 366.5,-528 366.5,-516 366.5,-516 366.5,-510 372.5,-504 378.5,-504 378.5,-504 434.5,-504 434.5,-504 440.5,-504 446.5,-510 446.5,-516 446.5,-516 446.5,-528 446.5,-528 446.5,-534 440.5,-540 434.5,-540"/>
<text text-anchor="middle" x="406.5" y="-519.5" font-family="sans" font-size="10.00">trim_adapter</text>
</g>
<!-- 4&#45;&gt;16 -->
<g id="edge48" class="edge">
<title>4&#45;&gt;16</title>
<path fill="none" stroke="grey" stroke-width="2" d="M380.9,-575.7C384.77,-567.73 389.45,-558.1 393.74,-549.26"/>
<polygon fill="grey" stroke="grey" stroke-width="2" points="396.97,-550.63 398.19,-540.1 390.67,-547.57 396.97,-550.63"/>
</g>
<!-- 5 -->
<g id="node6" class="node">
<title>5</title>
<path fill="none" stroke="#56c9d8" stroke-width="2" stroke-dasharray="5,2" d="M650,-180C650,-180 593,-180 593,-180 587,-180 581,-174 581,-168 581,-168 581,-156 581,-156 581,-150 587,-144 593,-144 593,-144 650,-144 650,-144 656,-144 662,-150 662,-156 662,-156 662,-168 662,-168 662,-174 656,-180 650,-180"/>
<text text-anchor="middle" x="621.5" y="-159.5" font-family="sans" font-size="10.00">raw_fastq_qc</text>
</g>
<!-- 5&#45;&gt;0 -->
<g id="edge3" class="edge">
<title>5&#45;&gt;0</title>
<path fill="none" stroke="grey" stroke-width="2" d="M637.74,-143.94C659.05,-122.8 698.7,-87.66 740.5,-72 865.44,-25.2 1284.93,-19.65 1412.43,-19.05"/>
<polygon fill="grey" stroke="grey" stroke-width="2" points="1412.49,-22.55 1422.48,-19.01 1412.46,-15.55 1412.49,-22.55"/>
</g>
<!-- 6 -->
<g id="node7" class="node">
<title>6</title>
<path fill="none" stroke="#59d856" stroke-width="2" stroke-dasharray="5,2" d="M708.5,-612C708.5,-612 604.5,-612 604.5,-612 598.5,-612 592.5,-606 592.5,-600 592.5,-600 592.5,-588 592.5,-588 592.5,-582 598.5,-576 604.5,-576 604.5,-576 708.5,-576 708.5,-576 714.5,-576 720.5,-582 720.5,-588 720.5,-588 720.5,-600 720.5,-600 720.5,-606 714.5,-612 708.5,-612"/>
<text text-anchor="middle" x="656.5" y="-597" font-family="sans" font-size="10.00">rename_fastq</text>
<text text-anchor="middle" x="656.5" y="-586" font-family="sans" font-size="10.00">sample: CM_C4_D28_3</text>
</g>
<!-- 6&#45;&gt;5 -->
<g id="edge41" class="edge">
<title>6&#45;&gt;5</title>
<path fill="none" stroke="grey" stroke-width="2" d="M649.62,-575.83C639.68,-549.44 622.5,-497.14 622.5,-451 622.5,-451 622.5,-451 622.5,-305 622.5,-265 622.1,-218.65 621.8,-190.08"/>
<polygon fill="grey" stroke="grey" stroke-width="2" points="625.3,-190.01 621.7,-180.05 618.3,-190.09 625.3,-190.01"/>
</g>
<!-- 18 -->
<g id="node19" class="node">
<title>18</title>
<path fill="none" stroke="#c6d856" stroke-width="2" stroke-dasharray="5,2" d="M718.5,-540C718.5,-540 662.5,-540 662.5,-540 656.5,-540 650.5,-534 650.5,-528 650.5,-528 650.5,-516 650.5,-516 650.5,-510 656.5,-504 662.5,-504 662.5,-504 718.5,-504 718.5,-504 724.5,-504 730.5,-510 730.5,-516 730.5,-516 730.5,-528 730.5,-528 730.5,-534 724.5,-540 718.5,-540"/>
<text text-anchor="middle" x="690.5" y="-519.5" font-family="sans" font-size="10.00">trim_adapter</text>
</g>
<!-- 6&#45;&gt;18 -->
<g id="edge50" class="edge">
<title>6&#45;&gt;18</title>
<path fill="none" stroke="grey" stroke-width="2" d="M664.9,-575.7C668.77,-567.73 673.45,-558.1 677.74,-549.26"/>
<polygon fill="grey" stroke="grey" stroke-width="2" points="680.97,-550.63 682.19,-540.1 674.67,-547.57 680.97,-550.63"/>
</g>
<!-- 7 -->
<g id="node8" class="node">
<title>7</title>
<path fill="none" stroke="#56c9d8" stroke-width="2" stroke-dasharray="5,2" d="M1112,-108C1112,-108 1055,-108 1055,-108 1049,-108 1043,-102 1043,-96 1043,-96 1043,-84 1043,-84 1043,-78 1049,-72 1055,-72 1055,-72 1112,-72 1112,-72 1118,-72 1124,-78 1124,-84 1124,-84 1124,-96 1124,-96 1124,-102 1118,-108 1112,-108"/>
<text text-anchor="middle" x="1083.5" y="-87.5" font-family="sans" font-size="10.00">raw_fastq_qc</text>
</g>
<!-- 7&#45;&gt;0 -->
<g id="edge4" class="edge">
<title>7&#45;&gt;0</title>
<path fill="none" stroke="grey" stroke-width="2" d="M1124.12,-80.78C1138.17,-77.96 1154.02,-74.81 1168.5,-72 1255.76,-55.04 1358.43,-35.88 1412.26,-25.89"/>
<polygon fill="grey" stroke="grey" stroke-width="2" points="1413.16,-29.28 1422.35,-24.02 1411.88,-22.4 1413.16,-29.28"/>
</g>
<!-- 8 -->
<g id="node9" class="node">
<title>8</title>
<path fill="none" stroke="#59d856" stroke-width="2" stroke-dasharray="5,2" d="M1931.5,-612C1931.5,-612 1827.5,-612 1827.5,-612 1821.5,-612 1815.5,-606 1815.5,-600 1815.5,-600 1815.5,-588 1815.5,-588 1815.5,-582 1821.5,-576 1827.5,-576 1827.5,-576 1931.5,-576 1931.5,-576 1937.5,-576 1943.5,-582 1943.5,-588 1943.5,-588 1943.5,-600 1943.5,-600 1943.5,-606 1937.5,-612 1931.5,-612"/>
<text text-anchor="middle" x="1879.5" y="-597" font-family="sans" font-size="10.00">rename_fastq</text>
<text text-anchor="middle" x="1879.5" y="-586" font-family="sans" font-size="10.00">sample: CM_P4_D28_1</text>
</g>
<!-- 8&#45;&gt;7 -->
<g id="edge42" class="edge">
<title>8&#45;&gt;7</title>
<path fill="none" stroke="grey" stroke-width="2" d="M1815.35,-590.82C1725.62,-583.95 1573.5,-556.71 1573.5,-451 1573.5,-451 1573.5,-451 1573.5,-377 1573.5,-238.41 1050.13,-359.37 962.5,-252 923.19,-203.83 996.87,-144.9 1045.54,-113.4"/>
<polygon fill="grey" stroke="grey" stroke-width="2" points="1047.44,-116.34 1054.01,-108.03 1043.69,-110.43 1047.44,-116.34"/>
</g>
<!-- 20 -->
<g id="node21" class="node">
<title>20</title>
<path fill="none" stroke="#c6d856" stroke-width="2" stroke-dasharray="5,2" d="M2213.5,-540C2213.5,-540 2157.5,-540 2157.5,-540 2151.5,-540 2145.5,-534 2145.5,-528 2145.5,-528 2145.5,-516 2145.5,-516 2145.5,-510 2151.5,-504 2157.5,-504 2157.5,-504 2213.5,-504 2213.5,-504 2219.5,-504 2225.5,-510 2225.5,-516 2225.5,-516 2225.5,-528 2225.5,-528 2225.5,-534 2219.5,-540 2213.5,-540"/>
<text text-anchor="middle" x="2185.5" y="-519.5" font-family="sans" font-size="10.00">trim_adapter</text>
</g>
<!-- 8&#45;&gt;20 -->
<g id="edge52" class="edge">
<title>8&#45;&gt;20</title>
<path fill="none" stroke="grey" stroke-width="2" d="M1943.65,-578.33C2000.66,-565.28 2082.86,-546.48 2135.22,-534.5"/>
<polygon fill="grey" stroke="grey" stroke-width="2" points="2136.32,-537.84 2145.28,-532.2 2134.75,-531.02 2136.32,-537.84"/>
</g>
<!-- 9 -->
<g id="node10" class="node">
<title>9</title>
<path fill="none" stroke="#56c9d8" stroke-width="2" stroke-dasharray="5,2" d="M2519,-180C2519,-180 2462,-180 2462,-180 2456,-180 2450,-174 2450,-168 2450,-168 2450,-156 2450,-156 2450,-150 2456,-144 2462,-144 2462,-144 2519,-144 2519,-144 2525,-144 2531,-150 2531,-156 2531,-156 2531,-168 2531,-168 2531,-174 2525,-180 2519,-180"/>
<text text-anchor="middle" x="2490.5" y="-159.5" font-family="sans" font-size="10.00">raw_fastq_qc</text>
</g>
<!-- 9&#45;&gt;0 -->
<g id="edge5" class="edge">
<title>9&#45;&gt;0</title>
<path fill="none" stroke="grey" stroke-width="2" d="M2485.3,-143.69C2477.96,-122.64 2462.37,-87.94 2435.5,-72 2352.78,-22.92 1657.25,-19.16 1487,-18.98"/>
<polygon fill="grey" stroke="grey" stroke-width="2" points="1486.78,-15.48 1476.78,-18.97 1486.78,-22.48 1486.78,-15.48"/>
</g>
<!-- 10 -->
<g id="node11" class="node">
<title>10</title>
<path fill="none" stroke="#59d856" stroke-width="2" stroke-dasharray="5,2" d="M2560.5,-612C2560.5,-612 2456.5,-612 2456.5,-612 2450.5,-612 2444.5,-606 2444.5,-600 2444.5,-600 2444.5,-588 2444.5,-588 2444.5,-582 2450.5,-576 2456.5,-576 2456.5,-576 2560.5,-576 2560.5,-576 2566.5,-576 2572.5,-582 2572.5,-588 2572.5,-588 2572.5,-600 2572.5,-600 2572.5,-606 2566.5,-612 2560.5,-612"/>
<text text-anchor="middle" x="2508.5" y="-597" font-family="sans" font-size="10.00">rename_fastq</text>
<text text-anchor="middle" x="2508.5" y="-586" font-family="sans" font-size="10.00">sample: CM_P4_D28_2</text>
</g>
<!-- 10&#45;&gt;9 -->
<g id="edge43" class="edge">
<title>10&#45;&gt;9</title>
<path fill="none" stroke="grey" stroke-width="2" d="M2501.42,-575.85C2491.19,-549.49 2473.5,-497.21 2473.5,-451 2473.5,-451 2473.5,-451 2473.5,-377 2473.5,-304.29 2510.58,-288.26 2502.5,-216 2501.54,-207.43 2499.74,-198.22 2497.81,-189.93"/>
<polygon fill="grey" stroke="grey" stroke-width="2" points="2501.16,-188.89 2495.37,-180.02 2494.37,-190.57 2501.16,-188.89"/>
</g>
<!-- 22 -->
<g id="node23" class="node">
<title>22</title>
<path fill="none" stroke="#c6d856" stroke-width="2" stroke-dasharray="5,2" d="M2571.5,-540C2571.5,-540 2515.5,-540 2515.5,-540 2509.5,-540 2503.5,-534 2503.5,-528 2503.5,-528 2503.5,-516 2503.5,-516 2503.5,-510 2509.5,-504 2515.5,-504 2515.5,-504 2571.5,-504 2571.5,-504 2577.5,-504 2583.5,-510 2583.5,-516 2583.5,-516 2583.5,-528 2583.5,-528 2583.5,-534 2577.5,-540 2571.5,-540"/>
<text text-anchor="middle" x="2543.5" y="-519.5" font-family="sans" font-size="10.00">trim_adapter</text>
</g>
<!-- 10&#45;&gt;22 -->
<g id="edge54" class="edge">
<title>10&#45;&gt;22</title>
<path fill="none" stroke="grey" stroke-width="2" d="M2517.15,-575.7C2521.14,-567.73 2525.95,-558.1 2530.37,-549.26"/>
<polygon fill="grey" stroke="grey" stroke-width="2" points="2533.61,-550.61 2534.95,-540.1 2527.35,-547.48 2533.61,-550.61"/>
</g>
<!-- 11 -->
<g id="node12" class="node">
<title>11</title>
<path fill="none" stroke="#56c9d8" stroke-width="2" stroke-dasharray="5,2" d="M2781,-108C2781,-108 2724,-108 2724,-108 2718,-108 2712,-102 2712,-96 2712,-96 2712,-84 2712,-84 2712,-78 2718,-72 2724,-72 2724,-72 2781,-72 2781,-72 2787,-72 2793,-78 2793,-84 2793,-84 2793,-96 2793,-96 2793,-102 2787,-108 2781,-108"/>
<text text-anchor="middle" x="2752.5" y="-87.5" font-family="sans" font-size="10.00">raw_fastq_qc</text>
</g>
<!-- 11&#45;&gt;0 -->
<g id="edge6" class="edge">
<title>11&#45;&gt;0</title>
<path fill="none" stroke="grey" stroke-width="2" d="M2711.78,-76.61C2704.42,-74.77 2696.78,-73.12 2689.5,-72 2448.87,-34.86 1666.71,-21.99 1486.69,-19.48"/>
<polygon fill="grey" stroke="grey" stroke-width="2" points="1486.7,-15.98 1476.65,-19.35 1486.6,-22.98 1486.7,-15.98"/>
</g>
<!-- 12 -->
<g id="node13" class="node">
<title>12</title>
<path fill="none" stroke="#59d856" stroke-width="2" stroke-dasharray="5,2" d="M2843.5,-612C2843.5,-612 2739.5,-612 2739.5,-612 2733.5,-612 2727.5,-606 2727.5,-600 2727.5,-600 2727.5,-588 2727.5,-588 2727.5,-582 2733.5,-576 2739.5,-576 2739.5,-576 2843.5,-576 2843.5,-576 2849.5,-576 2855.5,-582 2855.5,-588 2855.5,-588 2855.5,-600 2855.5,-600 2855.5,-606 2849.5,-612 2843.5,-612"/>
<text text-anchor="middle" x="2791.5" y="-597" font-family="sans" font-size="10.00">rename_fastq</text>
<text text-anchor="middle" x="2791.5" y="-586" font-family="sans" font-size="10.00">sample: CM_P4_D28_3</text>
</g>
<!-- 12&#45;&gt;11 -->
<g id="edge44" class="edge">
<title>12&#45;&gt;11</title>
<path fill="none" stroke="grey" stroke-width="2" d="M2784.62,-575.83C2774.68,-549.44 2757.5,-497.14 2757.5,-451 2757.5,-451 2757.5,-451 2757.5,-305 2757.5,-237.94 2755.02,-159.09 2753.55,-118.39"/>
<polygon fill="grey" stroke="grey" stroke-width="2" points="2757.04,-118.06 2753.17,-108.2 2750.04,-118.32 2757.04,-118.06"/>
</g>
<!-- 24 -->
<g id="node25" class="node">
<title>24</title>
<path fill="none" stroke="#c6d856" stroke-width="2" stroke-dasharray="5,2" d="M2853.5,-540C2853.5,-540 2797.5,-540 2797.5,-540 2791.5,-540 2785.5,-534 2785.5,-528 2785.5,-528 2785.5,-516 2785.5,-516 2785.5,-510 2791.5,-504 2797.5,-504 2797.5,-504 2853.5,-504 2853.5,-504 2859.5,-504 2865.5,-510 2865.5,-516 2865.5,-516 2865.5,-528 2865.5,-528 2865.5,-534 2859.5,-540 2853.5,-540"/>
<text text-anchor="middle" x="2825.5" y="-519.5" font-family="sans" font-size="10.00">trim_adapter</text>
</g>
<!-- 12&#45;&gt;24 -->
<g id="edge56" class="edge">
<title>12&#45;&gt;24</title>
<path fill="none" stroke="grey" stroke-width="2" d="M2799.9,-575.7C2803.77,-567.73 2808.45,-558.1 2812.74,-549.26"/>
<polygon fill="grey" stroke="grey" stroke-width="2" points="2815.97,-550.63 2817.19,-540.1 2809.67,-547.57 2815.97,-550.63"/>
</g>
<!-- 13 -->
<g id="node14" class="node">
<title>13</title>
<path fill="none" stroke="#56d8a2" stroke-width="2" stroke-dasharray="5,2" d="M170,-180C170,-180 111,-180 111,-180 105,-180 99,-174 99,-168 99,-168 99,-156 99,-156 99,-150 105,-144 111,-144 111,-144 170,-144 170,-144 176,-144 182,-150 182,-156 182,-156 182,-168 182,-168 182,-174 176,-180 170,-180"/>
<text text-anchor="middle" x="140.5" y="-159.5" font-family="sans" font-size="10.00">trim_fastq_qc</text>
</g>
<!-- 13&#45;&gt;0 -->
<g id="edge7" class="edge">
<title>13&#45;&gt;0</title>
<path fill="none" stroke="grey" stroke-width="2" d="M145.73,-144C153.21,-122.92 169.18,-87.85 196.5,-72 250.39,-40.74 1209.7,-23.01 1412.17,-19.6"/>
<polygon fill="grey" stroke="grey" stroke-width="2" points="1412.36,-23.1 1422.3,-19.44 1412.25,-16.1 1412.36,-23.1"/>
</g>
<!-- 14&#45;&gt;13 -->
<g id="edge45" class="edge">
<title>14&#45;&gt;13</title>
<path fill="none" stroke="grey" stroke-width="2" d="M140.5,-503.95C140.5,-477.29 140.5,-424.11 140.5,-379 140.5,-379 140.5,-379 140.5,-305 140.5,-265 140.5,-218.65 140.5,-190.08"/>
<polygon fill="grey" stroke="grey" stroke-width="2" points="144,-190.05 140.5,-180.05 137,-190.05 144,-190.05"/>
</g>
<!-- 26 -->
<g id="node27" class="node">
<title>26</title>
<path fill="none" stroke="#56d8c9" stroke-width="2" stroke-dasharray="5,2" d="M259,-468C259,-468 204,-468 204,-468 198,-468 192,-462 192,-456 192,-456 192,-444 192,-444 192,-438 198,-432 204,-432 204,-432 259,-432 259,-432 265,-432 271,-438 271,-444 271,-444 271,-456 271,-456 271,-462 265,-468 259,-468"/>
<text text-anchor="middle" x="231.5" y="-447.5" font-family="sans" font-size="10.00">bowtie_align</text>
</g>
<!-- 14&#45;&gt;26 -->
<g id="edge58" class="edge">
<title>14&#45;&gt;26</title>
<path fill="none" stroke="grey" stroke-width="2" d="M162.99,-503.7C174.46,-494.88 188.56,-484.03 200.98,-474.47"/>
<polygon fill="grey" stroke="grey" stroke-width="2" points="203.47,-476.98 209.26,-468.1 199.2,-471.43 203.47,-476.98"/>
</g>
<!-- 15 -->
<g id="node16" class="node">
<title>15</title>
<path fill="none" stroke="#56d8a2" stroke-width="2" stroke-dasharray="5,2" d="M447,-108C447,-108 388,-108 388,-108 382,-108 376,-102 376,-96 376,-96 376,-84 376,-84 376,-78 382,-72 388,-72 388,-72 447,-72 447,-72 453,-72 459,-78 459,-84 459,-84 459,-96 459,-96 459,-102 453,-108 447,-108"/>
<text text-anchor="middle" x="417.5" y="-87.5" font-family="sans" font-size="10.00">trim_fastq_qc</text>
</g>
<!-- 15&#45;&gt;0 -->
<g id="edge8" class="edge">
<title>15&#45;&gt;0</title>
<path fill="none" stroke="grey" stroke-width="2" d="M459.13,-75.17C463.93,-73.93 468.8,-72.83 473.5,-72 658.92,-39.31 1256.21,-23.47 1412.03,-19.83"/>
<polygon fill="grey" stroke="grey" stroke-width="2" points="1412.15,-23.33 1422.07,-19.6 1411.99,-16.33 1412.15,-23.33"/>
</g>
<!-- 16&#45;&gt;15 -->
<g id="edge47" class="edge">
<title>16&#45;&gt;15</title>
<path fill="none" stroke="grey" stroke-width="2" d="M400.43,-503.76C391.66,-477.28 376.5,-424.86 376.5,-379 376.5,-379 376.5,-379 376.5,-233 376.5,-191.41 392.94,-145.56 405,-117.51"/>
<polygon fill="grey" stroke="grey" stroke-width="2" points="408.35,-118.59 409.2,-108.03 401.95,-115.75 408.35,-118.59"/>
</g>
<!-- 28 -->
<g id="node29" class="node">
<title>28</title>
<path fill="none" stroke="#56d8c9" stroke-width="2" stroke-dasharray="5,2" d="M519,-468C519,-468 464,-468 464,-468 458,-468 452,-462 452,-456 452,-456 452,-444 452,-444 452,-438 458,-432 464,-432 464,-432 519,-432 519,-432 525,-432 531,-438 531,-444 531,-444 531,-456 531,-456 531,-462 525,-468 519,-468"/>
<text text-anchor="middle" x="491.5" y="-447.5" font-family="sans" font-size="10.00">bowtie_align</text>
</g>
<!-- 16&#45;&gt;28 -->
<g id="edge60" class="edge">
<title>16&#45;&gt;28</title>
<path fill="none" stroke="grey" stroke-width="2" d="M427.51,-503.7C438.22,-494.88 451.39,-484.03 463,-474.47"/>
<polygon fill="grey" stroke="grey" stroke-width="2" points="465.24,-477.16 470.73,-468.1 460.79,-471.76 465.24,-477.16"/>
</g>
<!-- 17 -->
<g id="node18" class="node">
<title>17</title>
<path fill="none" stroke="#56d8a2" stroke-width="2" stroke-dasharray="5,2" d="M751,-180C751,-180 692,-180 692,-180 686,-180 680,-174 680,-168 680,-168 680,-156 680,-156 680,-150 686,-144 692,-144 692,-144 751,-144 751,-144 757,-144 763,-150 763,-156 763,-156 763,-168 763,-168 763,-174 757,-180 751,-180"/>
<text text-anchor="middle" x="721.5" y="-159.5" font-family="sans" font-size="10.00">trim_fastq_qc</text>
</g>
<!-- 17&#45;&gt;0 -->
<g id="edge9" class="edge">
<title>17&#45;&gt;0</title>
<path fill="none" stroke="grey" stroke-width="2" d="M726.95,-143.79C734.59,-122.84 750.63,-88.25 777.5,-72 831.98,-39.05 1279.39,-23.82 1412.37,-20"/>
<polygon fill="grey" stroke="grey" stroke-width="2" points="1412.57,-23.49 1422.46,-19.71 1412.37,-16.49 1412.57,-23.49"/>
</g>
<!-- 18&#45;&gt;17 -->
<g id="edge49" class="edge">
<title>18&#45;&gt;17</title>
<path fill="none" stroke="grey" stroke-width="2" d="M684.43,-503.76C675.66,-477.28 660.5,-424.86 660.5,-379 660.5,-379 660.5,-379 660.5,-305 660.5,-261.61 684.84,-216.37 702.77,-188.94"/>
<polygon fill="grey" stroke="grey" stroke-width="2" points="705.88,-190.59 708.56,-180.34 700.07,-186.68 705.88,-190.59"/>
</g>
<!-- 30 -->
<g id="node31" class="node">
<title>30</title>
<path fill="none" stroke="#56d8c9" stroke-width="2" stroke-dasharray="5,2" d="M826,-468C826,-468 771,-468 771,-468 765,-468 759,-462 759,-456 759,-456 759,-444 759,-444 759,-438 765,-432 771,-432 771,-432 826,-432 826,-432 832,-432 838,-438 838,-444 838,-444 838,-456 838,-456 838,-462 832,-468 826,-468"/>
<text text-anchor="middle" x="798.5" y="-447.5" font-family="sans" font-size="10.00">bowtie_align</text>
</g>
<!-- 18&#45;&gt;30 -->
<g id="edge62" class="edge">
<title>18&#45;&gt;30</title>
<path fill="none" stroke="grey" stroke-width="2" d="M716.92,-503.88C730.91,-494.81 748.28,-483.55 763.39,-473.76"/>
<polygon fill="grey" stroke="grey" stroke-width="2" points="765.49,-476.57 771.98,-468.19 761.68,-470.69 765.49,-476.57"/>
</g>
<!-- 19 -->
<g id="node20" class="node">
<title>19</title>
<path fill="none" stroke="#56d8a2" stroke-width="2" stroke-dasharray="5,2" d="M2256,-108C2256,-108 2197,-108 2197,-108 2191,-108 2185,-102 2185,-96 2185,-96 2185,-84 2185,-84 2185,-78 2191,-72 2197,-72 2197,-72 2256,-72 2256,-72 2262,-72 2268,-78 2268,-84 2268,-84 2268,-96 2268,-96 2268,-102 2262,-108 2256,-108"/>
<text text-anchor="middle" x="2226.5" y="-87.5" font-family="sans" font-size="10.00">trim_fastq_qc</text>
</g>
<!-- 19&#45;&gt;0 -->
<g id="edge10" class="edge">
<title>19&#45;&gt;0</title>
<path fill="none" stroke="grey" stroke-width="2" d="M2184.97,-84.09C2154.21,-80.53 2111.27,-75.7 2073.5,-72 1851.09,-50.2 1583.56,-29.24 1486.74,-21.82"/>
<polygon fill="grey" stroke="grey" stroke-width="2" points="1486.83,-18.32 1476.59,-21.05 1486.29,-25.3 1486.83,-18.32"/>
</g>
<!-- 20&#45;&gt;19 -->
<g id="edge51" class="edge">
<title>20&#45;&gt;19</title>
<path fill="none" stroke="grey" stroke-width="2" d="M2185.6,-503.72C2186.66,-462.47 2194.33,-356.62 2243.5,-288 2260.73,-263.95 2285.32,-277.97 2299.5,-252 2325.1,-205.12 2282.15,-147.56 2252.02,-115.52"/>
<polygon fill="grey" stroke="grey" stroke-width="2" points="2254.53,-113.08 2245.07,-108.32 2249.5,-117.95 2254.53,-113.08"/>
</g>
<!-- 32 -->
<g id="node33" class="node">
<title>32</title>
<path fill="none" stroke="#56d8c9" stroke-width="2" stroke-dasharray="5,2" d="M2309,-468C2309,-468 2254,-468 2254,-468 2248,-468 2242,-462 2242,-456 2242,-456 2242,-444 2242,-444 2242,-438 2248,-432 2254,-432 2254,-432 2309,-432 2309,-432 2315,-432 2321,-438 2321,-444 2321,-444 2321,-456 2321,-456 2321,-462 2315,-468 2309,-468"/>
<text text-anchor="middle" x="2281.5" y="-447.5" font-family="sans" font-size="10.00">bowtie_align</text>
</g>
<!-- 20&#45;&gt;32 -->
<g id="edge64" class="edge">
<title>20&#45;&gt;32</title>
<path fill="none" stroke="grey" stroke-width="2" d="M2209.23,-503.7C2221.44,-494.8 2236.49,-483.82 2249.68,-474.2"/>
<polygon fill="grey" stroke="grey" stroke-width="2" points="2252.02,-476.82 2258.04,-468.1 2247.9,-471.17 2252.02,-476.82"/>
</g>
<!-- 21 -->
<g id="node22" class="node">
<title>21</title>
<path fill="none" stroke="#56d8a2" stroke-width="2" stroke-dasharray="5,2" d="M2573,-396C2573,-396 2514,-396 2514,-396 2508,-396 2502,-390 2502,-384 2502,-384 2502,-372 2502,-372 2502,-366 2508,-360 2514,-360 2514,-360 2573,-360 2573,-360 2579,-360 2585,-366 2585,-372 2585,-372 2585,-384 2585,-384 2585,-390 2579,-396 2573,-396"/>
<text text-anchor="middle" x="2543.5" y="-375.5" font-family="sans" font-size="10.00">trim_fastq_qc</text>
</g>
<!-- 21&#45;&gt;0 -->
<g id="edge11" class="edge">
<title>21&#45;&gt;0</title>
<path fill="none" stroke="grey" stroke-width="2" d="M2538.63,-359.98C2535.94,-349.67 2532.86,-336.19 2531.5,-324 2522.6,-244.4 2571.91,-217.69 2540.5,-144 2522.38,-101.49 2507.9,-90.36 2465.5,-72 2374.41,-32.56 1659.9,-21.52 1487.05,-19.41"/>
<polygon fill="grey" stroke="grey" stroke-width="2" points="1486.96,-15.91 1476.92,-19.29 1486.87,-22.91 1486.96,-15.91"/>
</g>
<!-- 22&#45;&gt;21 -->
<g id="edge53" class="edge">
<title>22&#45;&gt;21</title>
<path fill="none" stroke="grey" stroke-width="2" d="M2543.5,-503.87C2543.5,-479.67 2543.5,-435.21 2543.5,-406.39"/>
<polygon fill="grey" stroke="grey" stroke-width="2" points="2547,-406.19 2543.5,-396.19 2540,-406.19 2547,-406.19"/>
</g>
<!-- 34 -->
<g id="node35" class="node">
<title>34</title>
<path fill="none" stroke="#56d8c9" stroke-width="2" stroke-dasharray="5,2" d="M2662,-468C2662,-468 2607,-468 2607,-468 2601,-468 2595,-462 2595,-456 2595,-456 2595,-444 2595,-444 2595,-438 2601,-432 2607,-432 2607,-432 2662,-432 2662,-432 2668,-432 2674,-438 2674,-444 2674,-444 2674,-456 2674,-456 2674,-462 2668,-468 2662,-468"/>
<text text-anchor="middle" x="2634.5" y="-447.5" font-family="sans" font-size="10.00">bowtie_align</text>
</g>
<!-- 22&#45;&gt;34 -->
<g id="edge66" class="edge">
<title>22&#45;&gt;34</title>
<path fill="none" stroke="grey" stroke-width="2" d="M2565.99,-503.7C2577.46,-494.88 2591.56,-484.03 2603.98,-474.47"/>
<polygon fill="grey" stroke="grey" stroke-width="2" points="2606.47,-476.98 2612.26,-468.1 2602.2,-471.43 2606.47,-476.98"/>
</g>
<!-- 23 -->
<g id="node24" class="node">
<title>23</title>
<path fill="none" stroke="#56d8a2" stroke-width="2" stroke-dasharray="5,2" d="M2857,-252C2857,-252 2798,-252 2798,-252 2792,-252 2786,-246 2786,-240 2786,-240 2786,-228 2786,-228 2786,-222 2792,-216 2798,-216 2798,-216 2857,-216 2857,-216 2863,-216 2869,-222 2869,-228 2869,-228 2869,-240 2869,-240 2869,-246 2863,-252 2857,-252"/>
<text text-anchor="middle" x="2827.5" y="-231.5" font-family="sans" font-size="10.00">trim_fastq_qc</text>
</g>
<!-- 23&#45;&gt;0 -->
<g id="edge12" class="edge">
<title>23&#45;&gt;0</title>
<path fill="none" stroke="grey" stroke-width="2" d="M2830.98,-215.93C2836.67,-182.52 2843.57,-108.61 2802.5,-72 2752.02,-27.01 1699.07,-20.08 1486.65,-19.14"/>
<polygon fill="grey" stroke="grey" stroke-width="2" points="1486.64,-15.64 1476.62,-19.09 1486.61,-22.64 1486.64,-15.64"/>
</g>
<!-- 24&#45;&gt;23 -->
<g id="edge55" class="edge">
<title>24&#45;&gt;23</title>
<path fill="none" stroke="grey" stroke-width="2" d="M2822.98,-503.98C2817.67,-465.42 2806.5,-368.48 2815.5,-288 2816.46,-279.43 2818.26,-270.22 2820.19,-261.93"/>
<polygon fill="grey" stroke="grey" stroke-width="2" points="2823.63,-262.57 2822.63,-252.02 2816.84,-260.89 2823.63,-262.57"/>
</g>
<!-- 36 -->
<g id="node37" class="node">
<title>36</title>
<path fill="none" stroke="#56d8c9" stroke-width="2" stroke-dasharray="5,2" d="M2899,-468C2899,-468 2844,-468 2844,-468 2838,-468 2832,-462 2832,-456 2832,-456 2832,-444 2832,-444 2832,-438 2838,-432 2844,-432 2844,-432 2899,-432 2899,-432 2905,-432 2911,-438 2911,-444 2911,-444 2911,-456 2911,-456 2911,-462 2905,-468 2899,-468"/>
<text text-anchor="middle" x="2871.5" y="-447.5" font-family="sans" font-size="10.00">bowtie_align</text>
</g>
<!-- 24&#45;&gt;36 -->
<g id="edge68" class="edge">
<title>24&#45;&gt;36</title>
<path fill="none" stroke="grey" stroke-width="2" d="M2836.87,-503.7C2842.22,-495.56 2848.7,-485.69 2854.61,-476.7"/>
<polygon fill="grey" stroke="grey" stroke-width="2" points="2857.69,-478.38 2860.26,-468.1 2851.84,-474.54 2857.69,-478.38"/>
</g>
<!-- 25 -->
<g id="node26" class="node">
<title>25</title>
<path fill="none" stroke="#d87d56" stroke-width="2" stroke-dasharray="5,2" d="M298.5,-396C298.5,-396 212.5,-396 212.5,-396 206.5,-396 200.5,-390 200.5,-384 200.5,-384 200.5,-372 200.5,-372 200.5,-366 206.5,-360 212.5,-360 212.5,-360 298.5,-360 298.5,-360 304.5,-360 310.5,-366 310.5,-372 310.5,-372 310.5,-384 310.5,-384 310.5,-390 304.5,-396 298.5,-396"/>
<text text-anchor="middle" x="255.5" y="-375.5" font-family="sans" font-size="10.00">remove_duplicates</text>
</g>
<!-- 25&#45;&gt;0 -->
<g id="edge13" class="edge">
<title>25&#45;&gt;0</title>
<path fill="none" stroke="grey" stroke-width="2" d="M245.72,-359.8C240.29,-349.65 233.79,-336.4 229.5,-324 216.27,-285.78 210.5,-275.45 210.5,-235 210.5,-235 210.5,-235 210.5,-161 210.5,-118.97 208.65,-96.93 242.5,-72 290.72,-36.49 1213.85,-22.15 1412.18,-19.48"/>
<polygon fill="grey" stroke="grey" stroke-width="2" points="1412.42,-22.97 1422.38,-19.34 1412.33,-15.97 1412.42,-22.97"/>
</g>
<!-- 37 -->
<g id="node38" class="node">
<title>37</title>
<path fill="none" stroke="#56d87b" stroke-width="2" stroke-dasharray="5,2" d="M544,-324C544,-324 455,-324 455,-324 449,-324 443,-318 443,-312 443,-312 443,-300 443,-300 443,-294 449,-288 455,-288 455,-288 544,-288 544,-288 550,-288 556,-294 556,-300 556,-300 556,-312 556,-312 556,-318 550,-324 544,-324"/>
<text text-anchor="middle" x="499.5" y="-303.5" font-family="sans" font-size="10.00">sort_bam_by_name</text>
</g>
<!-- 25&#45;&gt;37 -->
<g id="edge69" class="edge">
<title>25&#45;&gt;37</title>
<path fill="none" stroke="grey" stroke-width="2" d="M310.56,-361.2C346.82,-350.8 394.5,-337.12 432.89,-326.11"/>
<polygon fill="grey" stroke="grey" stroke-width="2" points="434.3,-329.35 442.94,-323.22 432.37,-322.62 434.3,-329.35"/>
</g>
<!-- 43 -->
<g id="node44" class="node">
<title>43</title>
<path fill="none" stroke="#d8a456" stroke-width="2" d="M298,-324C298,-324 251,-324 251,-324 245,-324 239,-318 239,-312 239,-312 239,-300 239,-300 239,-294 245,-288 251,-288 251,-288 298,-288 298,-288 304,-288 310,-294 310,-300 310,-300 310,-312 310,-312 310,-318 304,-324 298,-324"/>
<text text-anchor="middle" x="274.5" y="-303.5" font-family="sans" font-size="10.00">atacseq_qc</text>
</g>
<!-- 25&#45;&gt;43 -->
<g id="edge75" class="edge">
<title>25&#45;&gt;43</title>
<path fill="none" stroke="grey" stroke-width="2" d="M260.2,-359.7C262.31,-351.9 264.86,-342.51 267.22,-333.83"/>
<polygon fill="grey" stroke="grey" stroke-width="2" points="270.62,-334.67 269.86,-324.1 263.86,-332.84 270.62,-334.67"/>
</g>
<!-- 55 -->
<g id="node56" class="node">
<title>55</title>
<path fill="none" stroke="#9fd856" stroke-width="2" stroke-dasharray="5,2" d="M1704,-180C1704,-180 1509,-180 1509,-180 1503,-180 1497,-174 1497,-168 1497,-168 1497,-156 1497,-156 1497,-150 1503,-144 1509,-144 1509,-144 1704,-144 1704,-144 1710,-144 1716,-150 1716,-156 1716,-156 1716,-168 1716,-168 1716,-174 1710,-180 1704,-180"/>
<text text-anchor="middle" x="1606.5" y="-159.5" font-family="sans" font-size="10.00">differential_binding_analysis_per_sample</text>
</g>
<!-- 25&#45;&gt;55 -->
<g id="edge87" class="edge">
<title>25&#45;&gt;55</title>
<path fill="none" stroke="grey" stroke-width="2" d="M310.64,-372.57C355.13,-369.04 419.33,-364.03 475.5,-360 707.7,-343.35 1309.37,-356.29 1517.5,-252 1533.12,-244.17 1563.96,-211.39 1584.9,-187.89"/>
<polygon fill="grey" stroke="grey" stroke-width="2" points="1587.59,-190.14 1591.59,-180.33 1582.34,-185.5 1587.59,-190.14"/>
</g>
<!-- 26&#45;&gt;25 -->
<g id="edge57" class="edge">
<title>26&#45;&gt;25</title>
<path fill="none" stroke="grey" stroke-width="2" d="M237.43,-431.7C240.11,-423.9 243.33,-414.51 246.3,-405.83"/>
<polygon fill="grey" stroke="grey" stroke-width="2" points="249.7,-406.7 249.64,-396.1 243.08,-404.43 249.7,-406.7"/>
</g>
<!-- 27 -->
<g id="node28" class="node">
<title>27</title>
<path fill="none" stroke="#d87d56" stroke-width="2" stroke-dasharray="5,2" d="M582.5,-396C582.5,-396 496.5,-396 496.5,-396 490.5,-396 484.5,-390 484.5,-384 484.5,-384 484.5,-372 484.5,-372 484.5,-366 490.5,-360 496.5,-360 496.5,-360 582.5,-360 582.5,-360 588.5,-360 594.5,-366 594.5,-372 594.5,-372 594.5,-384 594.5,-384 594.5,-390 588.5,-396 582.5,-396"/>
<text text-anchor="middle" x="539.5" y="-375.5" font-family="sans" font-size="10.00">remove_duplicates</text>
</g>
<!-- 27&#45;&gt;0 -->
<g id="edge14" class="edge">
<title>27&#45;&gt;0</title>
<path fill="none" stroke="grey" stroke-width="2" d="M484.46,-362.38C465.23,-354.34 445.68,-342.17 434.5,-324 403.94,-274.35 458.27,-103.23 507.5,-72 584.9,-22.9 1247.11,-19.14 1412.29,-18.97"/>
<polygon fill="grey" stroke="grey" stroke-width="2" points="1412.44,-22.47 1422.44,-18.97 1412.44,-15.47 1412.44,-22.47"/>
</g>
<!-- 38 -->
<g id="node39" class="node">
<title>38</title>
<path fill="none" stroke="#56d87b" stroke-width="2" stroke-dasharray="5,2" d="M790,-324C790,-324 701,-324 701,-324 695,-324 689,-318 689,-312 689,-312 689,-300 689,-300 689,-294 695,-288 701,-288 701,-288 790,-288 790,-288 796,-288 802,-294 802,-300 802,-300 802,-312 802,-312 802,-318 796,-324 790,-324"/>
<text text-anchor="middle" x="745.5" y="-303.5" font-family="sans" font-size="10.00">sort_bam_by_name</text>
</g>
<!-- 27&#45;&gt;38 -->
<g id="edge70" class="edge">
<title>27&#45;&gt;38</title>
<path fill="none" stroke="grey" stroke-width="2" d="M589.63,-359.97C618.54,-350.14 655.07,-337.73 685.5,-327.39"/>
<polygon fill="grey" stroke="grey" stroke-width="2" points="686.8,-330.64 695.15,-324.11 684.55,-324.01 686.8,-330.64"/>
</g>
<!-- 44 -->
<g id="node45" class="node">
<title>44</title>
<path fill="none" stroke="#d8a456" stroke-width="2" d="M551,-180C551,-180 504,-180 504,-180 498,-180 492,-174 492,-168 492,-168 492,-156 492,-156 492,-150 498,-144 504,-144 504,-144 551,-144 551,-144 557,-144 563,-150 563,-156 563,-156 563,-168 563,-168 563,-174 557,-180 551,-180"/>
<text text-anchor="middle" x="527.5" y="-159.5" font-family="sans" font-size="10.00">atacseq_qc</text>
</g>
<!-- 27&#45;&gt;44 -->
<g id="edge76" class="edge">
<title>27&#45;&gt;44</title>
<path fill="none" stroke="grey" stroke-width="2" d="M550.55,-359.61C556.24,-349.62 562.58,-336.58 565.5,-324 576.5,-276.59 556.29,-221.39 541.36,-189.5"/>
<polygon fill="grey" stroke="grey" stroke-width="2" points="544.45,-187.85 536.94,-180.38 538.15,-190.91 544.45,-187.85"/>
</g>
<!-- 27&#45;&gt;55 -->
<g id="edge88" class="edge">
<title>27&#45;&gt;55</title>
<path fill="none" stroke="grey" stroke-width="2" d="M594.56,-373.26C648.15,-369.66 731.89,-364.18 804.5,-360 883.03,-355.48 1444.21,-364.73 1511.5,-324 1537.27,-308.4 1575.61,-230.78 1594.75,-189.28"/>
<polygon fill="grey" stroke="grey" stroke-width="2" points="1598,-190.6 1598.97,-180.04 1591.63,-187.69 1598,-190.6"/>
</g>
<!-- 28&#45;&gt;27 -->
<g id="edge59" class="edge">
<title>28&#45;&gt;27</title>
<path fill="none" stroke="grey" stroke-width="2" d="M503.37,-431.7C509,-423.47 515.85,-413.48 522.07,-404.42"/>
<polygon fill="grey" stroke="grey" stroke-width="2" points="525,-406.33 527.77,-396.1 519.23,-402.37 525,-406.33"/>
</g>
<!-- 29 -->
<g id="node30" class="node">
<title>29</title>
<path fill="none" stroke="#d87d56" stroke-width="2" stroke-dasharray="5,2" d="M911.5,-396C911.5,-396 825.5,-396 825.5,-396 819.5,-396 813.5,-390 813.5,-384 813.5,-384 813.5,-372 813.5,-372 813.5,-366 819.5,-360 825.5,-360 825.5,-360 911.5,-360 911.5,-360 917.5,-360 923.5,-366 923.5,-372 923.5,-372 923.5,-384 923.5,-384 923.5,-390 917.5,-396 911.5,-396"/>
<text text-anchor="middle" x="868.5" y="-375.5" font-family="sans" font-size="10.00">remove_duplicates</text>
</g>
<!-- 29&#45;&gt;0 -->
<g id="edge15" class="edge">
<title>29&#45;&gt;0</title>
<path fill="none" stroke="grey" stroke-width="2" d="M859.94,-359.69C835.83,-308.22 773.91,-154.57 849.5,-72 887.54,-30.45 1286.6,-21.3 1412,-19.44"/>
<polygon fill="grey" stroke="grey" stroke-width="2" points="1412.31,-22.94 1422.26,-19.3 1412.21,-15.94 1412.31,-22.94"/>
</g>
<!-- 39 -->
<g id="node40" class="node">
<title>39</title>
<path fill="none" stroke="#56d87b" stroke-width="2" stroke-dasharray="5,2" d="M998,-324C998,-324 909,-324 909,-324 903,-324 897,-318 897,-312 897,-312 897,-300 897,-300 897,-294 903,-288 909,-288 909,-288 998,-288 998,-288 1004,-288 1010,-294 1010,-300 1010,-300 1010,-312 1010,-312 1010,-318 1004,-324 998,-324"/>
<text text-anchor="middle" x="953.5" y="-303.5" font-family="sans" font-size="10.00">sort_bam_by_name</text>
</g>
<!-- 29&#45;&gt;39 -->
<g id="edge71" class="edge">
<title>29&#45;&gt;39</title>
<path fill="none" stroke="grey" stroke-width="2" d="M889.51,-359.7C900.22,-350.88 913.39,-340.03 925,-330.47"/>
<polygon fill="grey" stroke="grey" stroke-width="2" points="927.24,-333.16 932.73,-324.1 922.79,-327.76 927.24,-333.16"/>
</g>
<!-- 45 -->
<g id="node46" class="node">
<title>45</title>
<path fill="none" stroke="#d8a456" stroke-width="2" d="M917,-108C917,-108 870,-108 870,-108 864,-108 858,-102 858,-96 858,-96 858,-84 858,-84 858,-78 864,-72 870,-72 870,-72 917,-72 917,-72 923,-72 929,-78 929,-84 929,-84 929,-96 929,-96 929,-102 923,-108 917,-108"/>
<text text-anchor="middle" x="893.5" y="-87.5" font-family="sans" font-size="10.00">atacseq_qc</text>
</g>
<!-- 29&#45;&gt;45 -->
<g id="edge77" class="edge">
<title>29&#45;&gt;45</title>
<path fill="none" stroke="grey" stroke-width="2" d="M869.99,-359.97C874.16,-312.29 885.97,-177.18 891.08,-118.63"/>
<polygon fill="grey" stroke="grey" stroke-width="2" points="894.6,-118.57 891.99,-108.31 887.63,-117.96 894.6,-118.57"/>
</g>
<!-- 29&#45;&gt;55 -->
<g id="edge89" class="edge">
<title>29&#45;&gt;55</title>
<path fill="none" stroke="grey" stroke-width="2" d="M923.7,-375.74C1076.59,-371.82 1497.72,-358.03 1549.5,-324 1593.7,-294.95 1603.98,-228.21 1606.15,-190.41"/>
<polygon fill="grey" stroke="grey" stroke-width="2" points="1609.66,-190.26 1606.58,-180.13 1602.66,-189.97 1609.66,-190.26"/>
</g>
<!-- 30&#45;&gt;29 -->
<g id="edge61" class="edge">
<title>30&#45;&gt;29</title>
<path fill="none" stroke="grey" stroke-width="2" d="M815.8,-431.7C824.36,-423.14 834.84,-412.66 844.2,-403.3"/>
<polygon fill="grey" stroke="grey" stroke-width="2" points="846.8,-405.65 851.4,-396.1 841.85,-400.7 846.8,-405.65"/>
</g>
<!-- 31 -->
<g id="node32" class="node">
<title>31</title>
<path fill="none" stroke="#d87d56" stroke-width="2" stroke-dasharray="5,2" d="M2351.5,-396C2351.5,-396 2265.5,-396 2265.5,-396 2259.5,-396 2253.5,-390 2253.5,-384 2253.5,-384 2253.5,-372 2253.5,-372 2253.5,-366 2259.5,-360 2265.5,-360 2265.5,-360 2351.5,-360 2351.5,-360 2357.5,-360 2363.5,-366 2363.5,-372 2363.5,-372 2363.5,-384 2363.5,-384 2363.5,-390 2357.5,-396 2351.5,-396"/>
<text text-anchor="middle" x="2308.5" y="-375.5" font-family="sans" font-size="10.00">remove_duplicates</text>
</g>
<!-- 31&#45;&gt;0 -->
<g id="edge16" class="edge">
<title>31&#45;&gt;0</title>
<path fill="none" stroke="grey" stroke-width="2" d="M2340.55,-359.88C2353.62,-351.05 2367.32,-338.97 2374.5,-324 2424.41,-219.9 2409.48,-133.06 2311.5,-72 2240.83,-27.96 1643.72,-20.44 1487.03,-19.22"/>
<polygon fill="grey" stroke="grey" stroke-width="2" points="1486.96,-15.72 1476.94,-19.15 1486.91,-22.72 1486.96,-15.72"/>
</g>
<!-- 40 -->
<g id="node41" class="node">
<title>40</title>
<path fill="none" stroke="#56d87b" stroke-width="2" stroke-dasharray="5,2" d="M2353,-324C2353,-324 2264,-324 2264,-324 2258,-324 2252,-318 2252,-312 2252,-312 2252,-300 2252,-300 2252,-294 2258,-288 2264,-288 2264,-288 2353,-288 2353,-288 2359,-288 2365,-294 2365,-300 2365,-300 2365,-312 2365,-312 2365,-318 2359,-324 2353,-324"/>
<text text-anchor="middle" x="2308.5" y="-303.5" font-family="sans" font-size="10.00">sort_bam_by_name</text>
</g>
<!-- 31&#45;&gt;40 -->
<g id="edge72" class="edge">
<title>31&#45;&gt;40</title>
<path fill="none" stroke="grey" stroke-width="2" d="M2308.5,-359.7C2308.5,-351.98 2308.5,-342.71 2308.5,-334.11"/>
<polygon fill="grey" stroke="grey" stroke-width="2" points="2312,-334.1 2308.5,-324.1 2305,-334.1 2312,-334.1"/>
</g>
<!-- 46 -->
<g id="node47" class="node">
<title>46</title>
<path fill="none" stroke="#d8a456" stroke-width="2" d="M2481,-252C2481,-252 2434,-252 2434,-252 2428,-252 2422,-246 2422,-240 2422,-240 2422,-228 2422,-228 2422,-222 2428,-216 2434,-216 2434,-216 2481,-216 2481,-216 2487,-216 2493,-222 2493,-228 2493,-228 2493,-240 2493,-240 2493,-246 2487,-252 2481,-252"/>
<text text-anchor="middle" x="2457.5" y="-231.5" font-family="sans" font-size="10.00">atacseq_qc</text>
</g>
<!-- 31&#45;&gt;46 -->
<g id="edge78" class="edge">
<title>31&#45;&gt;46</title>
<path fill="none" stroke="grey" stroke-width="2" d="M2352.93,-359.83C2371.38,-351.12 2392.04,-339.15 2407.5,-324 2425.5,-306.36 2438.93,-280.85 2447.32,-261.66"/>
<polygon fill="grey" stroke="grey" stroke-width="2" points="2450.61,-262.86 2451.24,-252.28 2444.15,-260.16 2450.61,-262.86"/>
</g>
<!-- 31&#45;&gt;55 -->
<g id="edge90" class="edge">
<title>31&#45;&gt;55</title>
<path fill="none" stroke="grey" stroke-width="2" d="M2253.49,-375.65C2107.79,-371.61 1719.85,-357.78 1673.5,-324 1667.73,-319.79 1634.05,-234.29 1616.75,-189.64"/>
<polygon fill="grey" stroke="grey" stroke-width="2" points="1620,-188.33 1613.13,-180.26 1613.47,-190.85 1620,-188.33"/>
</g>
<!-- 32&#45;&gt;31 -->
<g id="edge63" class="edge">
<title>32&#45;&gt;31</title>
<path fill="none" stroke="grey" stroke-width="2" d="M2288.17,-431.7C2291.21,-423.81 2294.88,-414.3 2298.26,-405.55"/>
<polygon fill="grey" stroke="grey" stroke-width="2" points="2301.57,-406.69 2301.9,-396.1 2295.04,-404.17 2301.57,-406.69"/>
</g>
<!-- 33 -->
<g id="node34" class="node">
<title>33</title>
<path fill="none" stroke="#d87d56" stroke-width="2" stroke-dasharray="5,2" d="M2701.5,-396C2701.5,-396 2615.5,-396 2615.5,-396 2609.5,-396 2603.5,-390 2603.5,-384 2603.5,-384 2603.5,-372 2603.5,-372 2603.5,-366 2609.5,-360 2615.5,-360 2615.5,-360 2701.5,-360 2701.5,-360 2707.5,-360 2713.5,-366 2713.5,-372 2713.5,-372 2713.5,-384 2713.5,-384 2713.5,-390 2707.5,-396 2701.5,-396"/>
<text text-anchor="middle" x="2658.5" y="-375.5" font-family="sans" font-size="10.00">remove_duplicates</text>
</g>
<!-- 33&#45;&gt;0 -->
<g id="edge17" class="edge">
<title>33&#45;&gt;0</title>
<path fill="none" stroke="grey" stroke-width="2" d="M2661.12,-359.85C2663.44,-341.86 2665.96,-312.82 2662.5,-288 2655.59,-238.48 2638.99,-102.66 2599.5,-72 2554.57,-37.12 1679.81,-22.36 1486.92,-19.52"/>
<polygon fill="grey" stroke="grey" stroke-width="2" points="1486.77,-16.02 1476.72,-19.37 1486.67,-23.02 1486.77,-16.02"/>
</g>
<!-- 41 -->
<g id="node42" class="node">
<title>41</title>
<path fill="none" stroke="#56d87b" stroke-width="2" stroke-dasharray="5,2" d="M2641,-324C2641,-324 2552,-324 2552,-324 2546,-324 2540,-318 2540,-312 2540,-312 2540,-300 2540,-300 2540,-294 2546,-288 2552,-288 2552,-288 2641,-288 2641,-288 2647,-288 2653,-294 2653,-300 2653,-300 2653,-312 2653,-312 2653,-318 2647,-324 2641,-324"/>
<text text-anchor="middle" x="2596.5" y="-303.5" font-family="sans" font-size="10.00">sort_bam_by_name</text>
</g>
<!-- 33&#45;&gt;41 -->
<g id="edge73" class="edge">
<title>33&#45;&gt;41</title>
<path fill="none" stroke="grey" stroke-width="2" d="M2643.17,-359.7C2635.74,-351.3 2626.68,-341.07 2618.52,-331.86"/>
<polygon fill="grey" stroke="grey" stroke-width="2" points="2620.9,-329.27 2611.65,-324.1 2615.66,-333.91 2620.9,-329.27"/>
</g>
<!-- 47 -->
<g id="node48" class="node">
<title>47</title>
<path fill="none" stroke="#d8a456" stroke-width="2" d="M2723,-180C2723,-180 2676,-180 2676,-180 2670,-180 2664,-174 2664,-168 2664,-168 2664,-156 2664,-156 2664,-150 2670,-144 2676,-144 2676,-144 2723,-144 2723,-144 2729,-144 2735,-150 2735,-156 2735,-156 2735,-168 2735,-168 2735,-174 2729,-180 2723,-180"/>
<text text-anchor="middle" x="2699.5" y="-159.5" font-family="sans" font-size="10.00">atacseq_qc</text>
</g>
<!-- 33&#45;&gt;47 -->
<g id="edge79" class="edge">
<title>33&#45;&gt;47</title>
<path fill="none" stroke="grey" stroke-width="2" d="M2674.41,-359.8C2682.34,-350.07 2691.16,-337.22 2695.5,-324 2710.23,-279.13 2707.26,-223.38 2703.54,-190.64"/>
<polygon fill="grey" stroke="grey" stroke-width="2" points="2706.98,-189.96 2702.27,-180.47 2700.04,-190.83 2706.98,-189.96"/>
</g>
<!-- 33&#45;&gt;55 -->
<g id="edge91" class="edge">
<title>33&#45;&gt;55</title>
<path fill="none" stroke="grey" stroke-width="2" d="M2603.47,-361.76C2600.45,-361.12 2597.44,-360.52 2594.5,-360 2205.27,-290.61 2071.97,-414.42 1711.5,-252 1678.27,-237.03 1647.37,-208.31 1627.81,-187.53"/>
<polygon fill="grey" stroke="grey" stroke-width="2" points="1630.24,-185 1620.89,-180 1625.08,-189.74 1630.24,-185"/>
</g>
<!-- 34&#45;&gt;33 -->
<g id="edge65" class="edge">
<title>34&#45;&gt;33</title>
<path fill="none" stroke="grey" stroke-width="2" d="M2640.43,-431.7C2643.11,-423.9 2646.33,-414.51 2649.3,-405.83"/>
<polygon fill="grey" stroke="grey" stroke-width="2" points="2652.7,-406.7 2652.64,-396.1 2646.08,-404.43 2652.7,-406.7"/>
</g>
<!-- 35 -->
<g id="node36" class="node">
<title>35</title>
<path fill="none" stroke="#d87d56" stroke-width="2" stroke-dasharray="5,2" d="M2923.5,-396C2923.5,-396 2837.5,-396 2837.5,-396 2831.5,-396 2825.5,-390 2825.5,-384 2825.5,-384 2825.5,-372 2825.5,-372 2825.5,-366 2831.5,-360 2837.5,-360 2837.5,-360 2923.5,-360 2923.5,-360 2929.5,-360 2935.5,-366 2935.5,-372 2935.5,-372 2935.5,-384 2935.5,-384 2935.5,-390 2929.5,-396 2923.5,-396"/>
<text text-anchor="middle" x="2880.5" y="-375.5" font-family="sans" font-size="10.00">remove_duplicates</text>
</g>
<!-- 35&#45;&gt;0 -->
<g id="edge18" class="edge">
<title>35&#45;&gt;0</title>
<path fill="none" stroke="grey" stroke-width="2" d="M2910.1,-359.81C2923.17,-350.76 2937.56,-338.51 2946.5,-324 2967.72,-289.57 2965.5,-275.45 2965.5,-235 2965.5,-235 2965.5,-235 2965.5,-161 2965.5,-98.46 2915.01,-94.1 2856.5,-72 2725.15,-22.38 1696.27,-19.14 1486.69,-18.99"/>
<polygon fill="grey" stroke="grey" stroke-width="2" points="1486.51,-15.49 1476.51,-18.99 1486.51,-22.49 1486.51,-15.49"/>
</g>
<!-- 42 -->
<g id="node43" class="node">
<title>42</title>
<path fill="none" stroke="#56d87b" stroke-width="2" stroke-dasharray="5,2" d="M2925,-324C2925,-324 2836,-324 2836,-324 2830,-324 2824,-318 2824,-312 2824,-312 2824,-300 2824,-300 2824,-294 2830,-288 2836,-288 2836,-288 2925,-288 2925,-288 2931,-288 2937,-294 2937,-300 2937,-300 2937,-312 2937,-312 2937,-318 2931,-324 2925,-324"/>
<text text-anchor="middle" x="2880.5" y="-303.5" font-family="sans" font-size="10.00">sort_bam_by_name</text>
</g>
<!-- 35&#45;&gt;42 -->
<g id="edge74" class="edge">
<title>35&#45;&gt;42</title>
<path fill="none" stroke="grey" stroke-width="2" d="M2880.5,-359.7C2880.5,-351.98 2880.5,-342.71 2880.5,-334.11"/>
<polygon fill="grey" stroke="grey" stroke-width="2" points="2884,-334.1 2880.5,-324.1 2877,-334.1 2884,-334.1"/>
</g>
<!-- 48 -->
<g id="node49" class="node">
<title>48</title>
<path fill="none" stroke="#d8a456" stroke-width="2" d="M3053,-108C3053,-108 3006,-108 3006,-108 3000,-108 2994,-102 2994,-96 2994,-96 2994,-84 2994,-84 2994,-78 3000,-72 3006,-72 3006,-72 3053,-72 3053,-72 3059,-72 3065,-78 3065,-84 3065,-84 3065,-96 3065,-96 3065,-102 3059,-108 3053,-108"/>
<text text-anchor="middle" x="3029.5" y="-87.5" font-family="sans" font-size="10.00">atacseq_qc</text>
</g>
<!-- 35&#45;&gt;48 -->
<g id="edge80" class="edge">
<title>35&#45;&gt;48</title>
<path fill="none" stroke="grey" stroke-width="2" d="M2931.63,-359.9C2949.22,-351.64 2967.48,-339.96 2979.5,-324 3026.26,-261.88 3031.31,-165.4 3030.69,-118.48"/>
<polygon fill="grey" stroke="grey" stroke-width="2" points="3034.19,-118.11 3030.45,-108.2 3027.19,-118.28 3034.19,-118.11"/>
</g>
<!-- 35&#45;&gt;55 -->
<g id="edge92" class="edge">
<title>35&#45;&gt;55</title>
<path fill="none" stroke="grey" stroke-width="2" d="M2825.34,-370.62C2795.01,-367.23 2756.71,-363.12 2722.5,-360 2509.9,-340.58 2455.72,-347.26 2243.5,-324 2132.13,-311.79 1847.53,-296.01 1744.5,-252 1720.63,-241.8 1720.02,-230.52 1698.5,-216 1682.4,-205.14 1663.98,-194.25 1647.87,-185.19"/>
<polygon fill="grey" stroke="grey" stroke-width="2" points="1649.12,-181.88 1638.68,-180.07 1645.72,-188 1649.12,-181.88"/>
</g>
<!-- 36&#45;&gt;35 -->
<g id="edge67" class="edge">
<title>36&#45;&gt;35</title>
<path fill="none" stroke="grey" stroke-width="2" d="M2873.72,-431.7C2874.72,-423.98 2875.91,-414.71 2877.01,-406.11"/>
<polygon fill="grey" stroke="grey" stroke-width="2" points="2880.5,-406.47 2878.3,-396.1 2873.55,-405.58 2880.5,-406.47"/>
</g>
<!-- 37&#45;&gt;0 -->
<g id="edge19" class="edge">
<title>37&#45;&gt;0</title>
<path fill="none" stroke="grey" stroke-width="2" d="M491.68,-287.71C478.94,-256.73 457.56,-190.64 483.5,-144 513,-90.97 541.69,-90.45 599.5,-72 754.1,-22.67 1268.51,-18.97 1412.03,-18.92"/>
<polygon fill="grey" stroke="grey" stroke-width="2" points="1412.1,-22.42 1422.1,-18.92 1412.1,-15.42 1412.1,-22.42"/>
</g>
<!-- 49 -->
<g id="node50" class="node">
<title>49</title>
<path fill="none" stroke="#567bd8" stroke-width="2" stroke-dasharray="5,2" d="M1126,-252C1126,-252 983,-252 983,-252 977,-252 971,-246 971,-240 971,-240 971,-228 971,-228 971,-222 977,-216 983,-216 983,-216 1126,-216 1126,-216 1132,-216 1138,-222 1138,-228 1138,-228 1138,-240 1138,-240 1138,-246 1132,-252 1126,-252"/>
<text text-anchor="middle" x="1054.5" y="-231.5" font-family="sans" font-size="10.00">call_peak_genrich_per_sample</text>
</g>
<!-- 37&#45;&gt;49 -->
<g id="edge81" class="edge">
<title>37&#45;&gt;49</title>
<path fill="none" stroke="grey" stroke-width="2" d="M556.03,-297.87C651.34,-285.85 844.94,-261.43 960.82,-246.82"/>
<polygon fill="grey" stroke="grey" stroke-width="2" points="961.26,-250.29 970.75,-245.56 960.39,-243.34 961.26,-250.29"/>
</g>
<!-- 38&#45;&gt;0 -->
<g id="edge20" class="edge">
<title>38&#45;&gt;0</title>
<path fill="none" stroke="grey" stroke-width="2" d="M749.45,-287.97C761.52,-236.63 798.11,-86.1 815.5,-72 861.92,-34.37 1282.95,-22.49 1412.04,-19.71"/>
<polygon fill="grey" stroke="grey" stroke-width="2" points="1412.3,-23.21 1422.22,-19.5 1412.15,-16.21 1412.3,-23.21"/>
</g>
<!-- 50 -->
<g id="node51" class="node">
<title>50</title>
<path fill="none" stroke="#567bd8" stroke-width="2" stroke-dasharray="5,2" d="M1311,-252C1311,-252 1168,-252 1168,-252 1162,-252 1156,-246 1156,-240 1156,-240 1156,-228 1156,-228 1156,-222 1162,-216 1168,-216 1168,-216 1311,-216 1311,-216 1317,-216 1323,-222 1323,-228 1323,-228 1323,-240 1323,-240 1323,-246 1317,-252 1311,-252"/>
<text text-anchor="middle" x="1239.5" y="-231.5" font-family="sans" font-size="10.00">call_peak_genrich_per_sample</text>
</g>
<!-- 38&#45;&gt;50 -->
<g id="edge82" class="edge">
<title>38&#45;&gt;50</title>
<path fill="none" stroke="grey" stroke-width="2" d="M802.22,-298.46C878.21,-289.49 1017.48,-272.32 1145.79,-252.23"/>
<polygon fill="grey" stroke="grey" stroke-width="2" points="1146.46,-255.67 1155.79,-250.66 1145.37,-248.76 1146.46,-255.67"/>
</g>
<!-- 39&#45;&gt;0 -->
<g id="edge21" class="edge">
<title>39&#45;&gt;0</title>
<path fill="none" stroke="grey" stroke-width="2" d="M943.55,-287.98C938.23,-277.89 932.23,-264.64 929.5,-252 919.37,-205.08 907.13,-186.47 929.5,-144 955.87,-93.94 981.62,-92.15 1034.5,-72 1103.39,-45.75 1323.97,-27.8 1412.36,-21.5"/>
<polygon fill="grey" stroke="grey" stroke-width="2" points="1412.73,-24.98 1422.46,-20.79 1412.24,-18 1412.73,-24.98"/>
</g>
<!-- 51 -->
<g id="node52" class="node">
<title>51</title>
<path fill="none" stroke="#567bd8" stroke-width="2" stroke-dasharray="5,2" d="M1496,-252C1496,-252 1353,-252 1353,-252 1347,-252 1341,-246 1341,-240 1341,-240 1341,-228 1341,-228 1341,-222 1347,-216 1353,-216 1353,-216 1496,-216 1496,-216 1502,-216 1508,-222 1508,-228 1508,-228 1508,-240 1508,-240 1508,-246 1502,-252 1496,-252"/>
<text text-anchor="middle" x="1424.5" y="-231.5" font-family="sans" font-size="10.00">call_peak_genrich_per_sample</text>
</g>
<!-- 39&#45;&gt;51 -->
<g id="edge83" class="edge">
<title>39&#45;&gt;51</title>
<path fill="none" stroke="grey" stroke-width="2" d="M1010.12,-297.87C1082.28,-288.6 1211.1,-271.48 1330.72,-252.26"/>
<polygon fill="grey" stroke="grey" stroke-width="2" points="1331.48,-255.68 1340.79,-250.63 1330.36,-248.77 1331.48,-255.68"/>
</g>
<!-- 40&#45;&gt;0 -->
<g id="edge22" class="edge">
<title>40&#45;&gt;0</title>
<path fill="none" stroke="grey" stroke-width="2" d="M2318.04,-287.93C2323.14,-277.82 2328.89,-264.57 2331.5,-252 2348.48,-170.22 2349.01,-115.16 2277.5,-72 2209.23,-30.79 1639.56,-21.22 1486.97,-19.38"/>
<polygon fill="grey" stroke="grey" stroke-width="2" points="1486.76,-15.88 1476.72,-19.26 1486.68,-22.88 1486.76,-15.88"/>
</g>
<!-- 52 -->
<g id="node53" class="node">
<title>52</title>
<path fill="none" stroke="#567bd8" stroke-width="2" stroke-dasharray="5,2" d="M1908,-252C1908,-252 1765,-252 1765,-252 1759,-252 1753,-246 1753,-240 1753,-240 1753,-228 1753,-228 1753,-222 1759,-216 1765,-216 1765,-216 1908,-216 1908,-216 1914,-216 1920,-222 1920,-228 1920,-228 1920,-240 1920,-240 1920,-246 1914,-252 1908,-252"/>
<text text-anchor="middle" x="1836.5" y="-231.5" font-family="sans" font-size="10.00">call_peak_genrich_per_sample</text>
</g>
<!-- 40&#45;&gt;52 -->
<g id="edge84" class="edge">
<title>40&#45;&gt;52</title>
<path fill="none" stroke="grey" stroke-width="2" d="M2251.66,-290.76C2246.88,-289.76 2242.12,-288.82 2237.5,-288 2104.98,-264.48 2067.54,-272.02 1930.18,-252.03"/>
<polygon fill="grey" stroke="grey" stroke-width="2" points="1930.51,-248.55 1920.11,-250.55 1929.49,-255.47 1930.51,-248.55"/>
</g>
<!-- 41&#45;&gt;0 -->
<g id="edge23" class="edge">
<title>41&#45;&gt;0</title>
<path fill="none" stroke="grey" stroke-width="2" d="M2601.32,-287.78C2612.32,-244.28 2633.91,-129.39 2573.5,-72 2533.23,-33.75 1677.24,-21.63 1486.82,-19.4"/>
<polygon fill="grey" stroke="grey" stroke-width="2" points="1486.78,-15.9 1476.74,-19.29 1486.7,-22.9 1486.78,-15.9"/>
</g>
<!-- 53 -->
<g id="node54" class="node">
<title>53</title>
<path fill="none" stroke="#567bd8" stroke-width="2" stroke-dasharray="5,2" d="M2093,-252C2093,-252 1950,-252 1950,-252 1944,-252 1938,-246 1938,-240 1938,-240 1938,-228 1938,-228 1938,-222 1944,-216 1950,-216 1950,-216 2093,-216 2093,-216 2099,-216 2105,-222 2105,-228 2105,-228 2105,-240 2105,-240 2105,-246 2099,-252 2093,-252"/>
<text text-anchor="middle" x="2021.5" y="-231.5" font-family="sans" font-size="10.00">call_peak_genrich_per_sample</text>
</g>
<!-- 41&#45;&gt;53 -->
<g id="edge85" class="edge">
<title>41&#45;&gt;53</title>
<path fill="none" stroke="grey" stroke-width="2" d="M2539.94,-300.1C2451.57,-292.15 2275.2,-275.12 2115.14,-252.03"/>
<polygon fill="grey" stroke="grey" stroke-width="2" points="2115.5,-248.55 2105.11,-250.57 2114.5,-255.48 2115.5,-248.55"/>
</g>
<!-- 42&#45;&gt;0 -->
<g id="edge24" class="edge">
<title>42&#45;&gt;0</title>
<path fill="none" stroke="grey" stroke-width="2" d="M2883.06,-287.93C2888.67,-243.24 2896.5,-122.78 2827.5,-72 2772.01,-31.16 1701.72,-20.91 1486.87,-19.26"/>
<polygon fill="grey" stroke="grey" stroke-width="2" points="1486.76,-15.76 1476.73,-19.19 1486.7,-22.76 1486.76,-15.76"/>
</g>
<!-- 54 -->
<g id="node55" class="node">
<title>54</title>
<path fill="none" stroke="#567bd8" stroke-width="2" stroke-dasharray="5,2" d="M2278,-252C2278,-252 2135,-252 2135,-252 2129,-252 2123,-246 2123,-240 2123,-240 2123,-228 2123,-228 2123,-222 2129,-216 2135,-216 2135,-216 2278,-216 2278,-216 2284,-216 2290,-222 2290,-228 2290,-228 2290,-240 2290,-240 2290,-246 2284,-252 2278,-252"/>
<text text-anchor="middle" x="2206.5" y="-231.5" font-family="sans" font-size="10.00">call_peak_genrich_per_sample</text>
</g>
<!-- 42&#45;&gt;54 -->
<g id="edge86" class="edge">
<title>42&#45;&gt;54</title>
<path fill="none" stroke="grey" stroke-width="2" d="M2823.91,-299.12C2707.94,-287.08 2442.32,-259.49 2300.23,-244.73"/>
<polygon fill="grey" stroke="grey" stroke-width="2" points="2300.52,-241.25 2290.21,-243.69 2299.8,-248.21 2300.52,-241.25"/>
</g>
<!-- 43&#45;&gt;0 -->
<g id="edge25" class="edge">
<title>43&#45;&gt;0</title>
<path fill="none" stroke="grey" stroke-width="2" d="M266.82,-287.77C248.95,-244.75 210.31,-131.82 267.5,-72 308.01,-29.63 1216.31,-20.68 1412.4,-19.24"/>
<polygon fill="grey" stroke="grey" stroke-width="2" points="1412.52,-22.74 1422.49,-19.17 1412.47,-15.74 1412.52,-22.74"/>
</g>
<!-- 44&#45;&gt;0 -->
<g id="edge26" class="edge">
<title>44&#45;&gt;0</title>
<path fill="none" stroke="grey" stroke-width="2" d="M548.64,-143.91C576.2,-122.74 626.75,-87.58 676.5,-72 816.17,-28.27 1276.92,-20.59 1411.98,-19.27"/>
<polygon fill="grey" stroke="grey" stroke-width="2" points="1412.26,-22.77 1422.22,-19.17 1412.19,-15.77 1412.26,-22.77"/>
</g>
<!-- 45&#45;&gt;0 -->
<g id="edge27" class="edge">
<title>45&#45;&gt;0</title>
<path fill="none" stroke="grey" stroke-width="2" d="M929,-75.85C933.83,-74.38 938.75,-73.04 943.5,-72 1116,-34.14 1327.72,-23.09 1412.16,-20.06"/>
<polygon fill="grey" stroke="grey" stroke-width="2" points="1412.41,-23.56 1422.28,-19.72 1412.17,-16.56 1412.41,-23.56"/>
</g>
<!-- 46&#45;&gt;0 -->
<g id="edge28" class="edge">
<title>46&#45;&gt;0</title>
<path fill="none" stroke="grey" stroke-width="2" d="M2452.24,-215.72C2439.97,-176.01 2409.63,-80.94 2397.5,-72 2323.24,-17.29 1654.09,-17.73 1487.12,-18.71"/>
<polygon fill="grey" stroke="grey" stroke-width="2" points="1486.84,-15.21 1476.86,-18.77 1486.88,-22.21 1486.84,-15.21"/>
</g>
<!-- 47&#45;&gt;0 -->
<g id="edge29" class="edge">
<title>47&#45;&gt;0</title>
<path fill="none" stroke="grey" stroke-width="2" d="M2695.27,-143.7C2689.11,-122.66 2675.46,-87.97 2649.5,-72 2598.81,-40.82 1684.17,-23.1 1486.83,-19.63"/>
<polygon fill="grey" stroke="grey" stroke-width="2" points="1486.73,-16.13 1476.67,-19.46 1486.61,-23.13 1486.73,-16.13"/>
</g>
<!-- 48&#45;&gt;0 -->
<g id="edge30" class="edge">
<title>48&#45;&gt;0</title>
<path fill="none" stroke="grey" stroke-width="2" d="M2993.78,-75.46C2989.04,-74.07 2984.19,-72.86 2979.5,-72 2680.12,-17.16 1691.84,-18.02 1486.91,-18.81"/>
<polygon fill="grey" stroke="grey" stroke-width="2" points="1486.65,-15.32 1476.67,-18.86 1486.68,-22.32 1486.65,-15.32"/>
</g>
<!-- 49&#45;&gt;0 -->
<g id="edge31" class="edge">
<title>49&#45;&gt;0</title>
<path fill="none" stroke="grey" stroke-width="2" d="M1086.16,-215.85C1158.81,-176.49 1337.14,-79.87 1413.67,-38.41"/>
<polygon fill="grey" stroke="grey" stroke-width="2" points="1415.35,-41.48 1422.48,-33.64 1412.02,-35.32 1415.35,-41.48"/>
</g>
<!-- 49&#45;&gt;55 -->
<g id="edge93" class="edge">
<title>49&#45;&gt;55</title>
<path fill="none" stroke="grey" stroke-width="2" d="M1138.11,-217.45C1141.28,-216.94 1144.42,-216.46 1147.5,-216 1262.33,-198.89 1394.02,-184.19 1486.81,-174.64"/>
<polygon fill="grey" stroke="grey" stroke-width="2" points="1487.21,-178.12 1496.8,-173.62 1486.49,-171.15 1487.21,-178.12"/>
</g>
<!-- 56 -->
<g id="node57" class="node">
<title>56</title>
<path fill="none" stroke="#78d856" stroke-width="2" stroke-dasharray="5,2" d="M1655,-108C1655,-108 1522,-108 1522,-108 1516,-108 1510,-102 1510,-96 1510,-96 1510,-84 1510,-84 1510,-78 1516,-72 1522,-72 1522,-72 1655,-72 1655,-72 1661,-72 1667,-78 1667,-84 1667,-84 1667,-96 1667,-96 1667,-102 1661,-108 1655,-108"/>
<text text-anchor="middle" x="1588.5" y="-87.5" font-family="sans" font-size="10.00">annotate_peaks_per_sample</text>
</g>
<!-- 49&#45;&gt;56 -->
<g id="edge99" class="edge">
<title>49&#45;&gt;56</title>
<path fill="none" stroke="grey" stroke-width="2" d="M1111.04,-215.98C1173.2,-197.47 1276.13,-167.4 1365.5,-144 1410.85,-132.13 1461.69,-119.96 1503.35,-110.28"/>
<polygon fill="grey" stroke="grey" stroke-width="2" points="1504.24,-113.67 1513.19,-108 1502.66,-106.85 1504.24,-113.67"/>
</g>
<!-- 50&#45;&gt;0 -->
<g id="edge32" class="edge">
<title>50&#45;&gt;0</title>
<path fill="none" stroke="grey" stroke-width="2" d="M1256.33,-215.85C1293.42,-178.05 1382.33,-87.45 1425.36,-43.6"/>
<polygon fill="grey" stroke="grey" stroke-width="2" points="1428.08,-45.82 1432.59,-36.23 1423.09,-40.92 1428.08,-45.82"/>
</g>
<!-- 50&#45;&gt;55 -->
<g id="edge94" class="edge">
<title>50&#45;&gt;55</title>
<path fill="none" stroke="grey" stroke-width="2" d="M1323.24,-217.03C1378.03,-206.58 1449.88,-192.87 1507.51,-181.88"/>
<polygon fill="grey" stroke="grey" stroke-width="2" points="1508.19,-185.31 1517.36,-180 1506.88,-178.44 1508.19,-185.31"/>
</g>
<!-- 50&#45;&gt;56 -->
<g id="edge100" class="edge">
<title>50&#45;&gt;56</title>
<path fill="none" stroke="grey" stroke-width="2" d="M1279.42,-215.98C1322.14,-197.85 1391.92,-168.45 1452.5,-144 1479.36,-133.15 1509.36,-121.43 1534.33,-111.77"/>
<polygon fill="grey" stroke="grey" stroke-width="2" points="1535.92,-114.9 1543.99,-108.04 1533.4,-108.37 1535.92,-114.9"/>
</g>
<!-- 51&#45;&gt;0 -->
<g id="edge33" class="edge">
<title>51&#45;&gt;0</title>
<path fill="none" stroke="grey" stroke-width="2" d="M1426.5,-215.85C1430.83,-178.83 1441.07,-91.18 1446.3,-46.39"/>
<polygon fill="grey" stroke="grey" stroke-width="2" points="1449.8,-46.57 1447.49,-36.23 1442.85,-45.76 1449.8,-46.57"/>
</g>
<!-- 51&#45;&gt;55 -->
<g id="edge95" class="edge">
<title>51&#45;&gt;55</title>
<path fill="none" stroke="grey" stroke-width="2" d="M1469.02,-215.88C1494.23,-206.18 1525.95,-193.98 1552.57,-183.74"/>
<polygon fill="grey" stroke="grey" stroke-width="2" points="1554.05,-186.92 1562.12,-180.07 1551.53,-180.39 1554.05,-186.92"/>
</g>
<!-- 51&#45;&gt;56 -->
<g id="edge101" class="edge">
<title>51&#45;&gt;56</title>
<path fill="none" stroke="grey" stroke-width="2" d="M1433.64,-215.78C1444.61,-196.4 1464.55,-164.89 1488.5,-144 1502.87,-131.47 1520.71,-120.82 1537.33,-112.43"/>
<polygon fill="grey" stroke="grey" stroke-width="2" points="1538.95,-115.53 1546.41,-108 1535.88,-109.24 1538.95,-115.53"/>
</g>
<!-- 52&#45;&gt;0 -->
<g id="edge34" class="edge">
<title>52&#45;&gt;0</title>
<path fill="none" stroke="grey" stroke-width="2" d="M1825.5,-215.98C1802.48,-181.98 1745.62,-106.03 1676.5,-72 1614.19,-41.32 1533.39,-27.95 1486.91,-22.48"/>
<polygon fill="grey" stroke="grey" stroke-width="2" points="1487.02,-18.97 1476.7,-21.34 1486.25,-25.93 1487.02,-18.97"/>
</g>
<!-- 52&#45;&gt;55 -->
<g id="edge96" class="edge">
<title>52&#45;&gt;55</title>
<path fill="none" stroke="grey" stroke-width="2" d="M1780.53,-215.97C1747.97,-206.06 1706.76,-193.51 1672.61,-183.12"/>
<polygon fill="grey" stroke="grey" stroke-width="2" points="1673.31,-179.67 1662.72,-180.11 1671.27,-186.37 1673.31,-179.67"/>
</g>
<!-- 52&#45;&gt;56 -->
<g id="edge102" class="edge">
<title>52&#45;&gt;56</title>
<path fill="none" stroke="grey" stroke-width="2" d="M1818.54,-215.67C1797.59,-196.19 1761.25,-164.59 1725.5,-144 1703.07,-131.08 1676.88,-120.07 1653.45,-111.49"/>
<polygon fill="grey" stroke="grey" stroke-width="2" points="1654.53,-108.16 1643.94,-108.09 1652.17,-114.75 1654.53,-108.16"/>
</g>
<!-- 53&#45;&gt;0 -->
<g id="edge35" class="edge">
<title>53&#45;&gt;0</title>
<path fill="none" stroke="grey" stroke-width="2" d="M1995.27,-215.83C1943.79,-182.92 1824.99,-110.79 1715.5,-72 1636.6,-44.05 1539.03,-29.36 1486.75,-22.99"/>
<polygon fill="grey" stroke="grey" stroke-width="2" points="1486.95,-19.49 1476.61,-21.79 1486.13,-26.44 1486.95,-19.49"/>
</g>
<!-- 53&#45;&gt;55 -->
<g id="edge97" class="edge">
<title>53&#45;&gt;55</title>
<path fill="none" stroke="grey" stroke-width="2" d="M1937.78,-217.46C1934.98,-216.96 1932.22,-216.47 1929.5,-216 1861.36,-204.11 1784.99,-191.55 1723.63,-181.64"/>
<polygon fill="grey" stroke="grey" stroke-width="2" points="1723.95,-178.15 1713.52,-180.01 1722.84,-185.06 1723.95,-178.15"/>
</g>
<!-- 53&#45;&gt;56 -->
<g id="edge103" class="edge">
<title>53&#45;&gt;56</title>
<path fill="none" stroke="grey" stroke-width="2" d="M1973.86,-215.85C1922.41,-197.48 1837.95,-167.77 1764.5,-144 1729.28,-132.6 1689.84,-120.65 1657.24,-110.99"/>
<polygon fill="grey" stroke="grey" stroke-width="2" points="1657.94,-107.55 1647.35,-108.07 1655.95,-114.26 1657.94,-107.55"/>
</g>
<!-- 54&#45;&gt;0 -->
<g id="edge36" class="edge">
<title>54&#45;&gt;0</title>
<path fill="none" stroke="grey" stroke-width="2" d="M2167.83,-215.92C2092.58,-183.33 1920.55,-111.95 1769.5,-72 1669.1,-45.45 1547.28,-29.64 1487.01,-22.88"/>
<polygon fill="grey" stroke="grey" stroke-width="2" points="1487.16,-19.38 1476.84,-21.76 1486.39,-26.34 1487.16,-19.38"/>
</g>
<!-- 54&#45;&gt;55 -->
<g id="edge98" class="edge">
<title>54&#45;&gt;55</title>
<path fill="none" stroke="grey" stroke-width="2" d="M2122.81,-217.25C2120.01,-216.81 2117.23,-216.39 2114.5,-216 1982.21,-196.91 1829.59,-181.92 1726.45,-172.83"/>
<polygon fill="grey" stroke="grey" stroke-width="2" points="1726.58,-169.33 1716.31,-171.94 1725.96,-176.3 1726.58,-169.33"/>
</g>
<!-- 54&#45;&gt;56 -->
<g id="edge104" class="edge">
<title>54&#45;&gt;56</title>
<path fill="none" stroke="grey" stroke-width="2" d="M2136.44,-215.97C2061.17,-197.77 1938.01,-168.25 1831.5,-144 1780.41,-132.37 1723.16,-119.85 1677.06,-109.91"/>
<polygon fill="grey" stroke="grey" stroke-width="2" points="1677.61,-106.45 1667.1,-107.76 1676.14,-113.29 1677.61,-106.45"/>
</g>
<!-- 55&#45;&gt;0 -->
<g id="edge37" class="edge">
<title>55&#45;&gt;0</title>
<path fill="none" stroke="grey" stroke-width="2" d="M1558.96,-143.96C1539.55,-135.34 1517.86,-123.39 1501.5,-108 1482.85,-90.46 1468.81,-64.73 1460.04,-45.44"/>
<polygon fill="grey" stroke="grey" stroke-width="2" points="1463.14,-43.79 1455.95,-36.02 1456.72,-46.58 1463.14,-43.79"/>
</g>
<!-- 55&#45;&gt;56 -->
<g id="edge105" class="edge">
<title>55&#45;&gt;56</title>
<path fill="none" stroke="grey" stroke-width="2" d="M1602.05,-143.7C1600.05,-135.9 1597.63,-126.51 1595.4,-117.83"/>
<polygon fill="grey" stroke="grey" stroke-width="2" points="1598.78,-116.92 1592.9,-108.1 1592,-118.66 1598.78,-116.92"/>
</g>
<!-- 56&#45;&gt;0 -->
<g id="edge38" class="edge">
<title>56&#45;&gt;0</title>
<path fill="none" stroke="grey" stroke-width="2" d="M1554.5,-71.88C1533.63,-61.37 1506.94,-47.92 1485.68,-37.22"/>
<polygon fill="grey" stroke="grey" stroke-width="2" points="1487.15,-34.04 1476.64,-32.67 1484,-40.29 1487.15,-34.04"/>
</g>
</g>
</svg>
