<?xml version="1.0" encoding="UTF-8" standalone="no"?>
<!DOCTYPE svg PUBLIC "-//W3C//DTD SVG 1.1//EN"
 "http://www.w3.org/Graphics/SVG/1.1/DTD/svg11.dtd">
<!-- Generated by graphviz version 2.47.2 (20210527.1257)
 -->
<!-- Title: snakemake_dag Pages: 1 -->
<svg width="3020pt" height="548pt"
 viewBox="0.00 0.00 3020.00 548.00" xmlns="http://www.w3.org/2000/svg" xmlns:xlink="http://www.w3.org/1999/xlink">
<g id="graph0" class="graph" transform="scale(1 1) rotate(0) translate(4 544)">
<title>snakemake_dag</title>
<polygon fill="white" stroke="transparent" points="-4,4 -4,-544 3016,-544 3016,4 -4,4"/>
<!-- 0 -->
<g id="node1" class="node">
<title>0</title>
<path fill="none" stroke="#8fd856" stroke-width="2" stroke-dasharray="5,2" d="M1519.5,-36C1519.5,-36 1489.5,-36 1489.5,-36 1483.5,-36 1477.5,-30 1477.5,-24 1477.5,-24 1477.5,-12 1477.5,-12 1477.5,-6 1483.5,0 1489.5,0 1489.5,0 1519.5,0 1519.5,0 1525.5,0 1531.5,-6 1531.5,-12 1531.5,-12 1531.5,-24 1531.5,-24 1531.5,-30 1525.5,-36 1519.5,-36"/>
<text text-anchor="middle" x="1504.5" y="-15.5" font-family="sans" font-size="10.00">all</text>
</g>
<!-- 1 -->
<g id="node2" class="node">
<title>1</title>
<path fill="none" stroke="#56d892" stroke-width="2" stroke-dasharray="5,2" d="M69,-108C69,-108 12,-108 12,-108 6,-108 0,-102 0,-96 0,-96 0,-84 0,-84 0,-78 6,-72 12,-72 12,-72 69,-72 69,-72 75,-72 81,-78 81,-84 81,-84 81,-96 81,-96 81,-102 75,-108 69,-108"/>
<text text-anchor="middle" x="40.5" y="-87.5" font-family="sans" font-size="10.00">raw_fastq_qc</text>
</g>
<!-- 1&#45;&gt;0 -->
<g id="edge1" class="edge">
<title>1&#45;&gt;0</title>
<path fill="none" stroke="grey" stroke-width="2" d="M81.17,-74.1C84.3,-73.28 87.43,-72.57 90.5,-72 365.96,-21.13 1272.78,-18.83 1467.48,-18.94"/>
<polygon fill="grey" stroke="grey" stroke-width="2" points="1467.49,-22.44 1477.49,-18.95 1467.49,-15.44 1467.49,-22.44"/>
</g>
<!-- 2 -->
<g id="node3" class="node">
<title>2</title>
<path fill="none" stroke="#d85656" stroke-width="2" stroke-dasharray="5,2" d="M138.5,-540C138.5,-540 34.5,-540 34.5,-540 28.5,-540 22.5,-534 22.5,-528 22.5,-528 22.5,-516 22.5,-516 22.5,-510 28.5,-504 34.5,-504 34.5,-504 138.5,-504 138.5,-504 144.5,-504 150.5,-510 150.5,-516 150.5,-516 150.5,-528 150.5,-528 150.5,-534 144.5,-540 138.5,-540"/>
<text text-anchor="middle" x="86.5" y="-525" font-family="sans" font-size="10.00">rename_fastq</text>
<text text-anchor="middle" x="86.5" y="-514" font-family="sans" font-size="10.00">sample: CM_C4_D28_1</text>
</g>
<!-- 2&#45;&gt;1 -->
<g id="edge35" class="edge">
<title>2&#45;&gt;1</title>
<path fill="none" stroke="grey" stroke-width="2" d="M75.5,-503.94C69.42,-493.84 62.17,-480.59 57.5,-468 43.42,-430.08 38.5,-419.45 38.5,-379 38.5,-379 38.5,-379 38.5,-233 38.5,-192.99 39.3,-146.65 39.89,-118.08"/>
<polygon fill="grey" stroke="grey" stroke-width="2" points="43.39,-118.12 40.1,-108.05 36.39,-117.97 43.39,-118.12"/>
</g>
<!-- 14 -->
<g id="node15" class="node">
<title>14</title>
<path fill="none" stroke="#56a9d8" stroke-width="2" stroke-dasharray="5,2" d="M134.5,-468C134.5,-468 78.5,-468 78.5,-468 72.5,-468 66.5,-462 66.5,-456 66.5,-456 66.5,-444 66.5,-444 66.5,-438 72.5,-432 78.5,-432 78.5,-432 134.5,-432 134.5,-432 140.5,-432 146.5,-438 146.5,-444 146.5,-444 146.5,-456 146.5,-456 146.5,-462 140.5,-468 134.5,-468"/>
<text text-anchor="middle" x="106.5" y="-447.5" font-family="sans" font-size="10.00">trim_adapter</text>
</g>
<!-- 2&#45;&gt;14 -->
<g id="edge42" class="edge">
<title>2&#45;&gt;14</title>
<path fill="none" stroke="grey" stroke-width="2" d="M91.44,-503.7C93.67,-495.9 96.35,-486.51 98.83,-477.83"/>
<polygon fill="grey" stroke="grey" stroke-width="2" points="102.23,-478.68 101.61,-468.1 95.5,-476.76 102.23,-478.68"/>
</g>
<!-- 3 -->
<g id="node4" class="node">
<title>3</title>
<path fill="none" stroke="#56d892" stroke-width="2" stroke-dasharray="5,2" d="M210,-252C210,-252 153,-252 153,-252 147,-252 141,-246 141,-240 141,-240 141,-228 141,-228 141,-222 147,-216 153,-216 153,-216 210,-216 210,-216 216,-216 222,-222 222,-228 222,-228 222,-240 222,-240 222,-246 216,-252 210,-252"/>
<text text-anchor="middle" x="181.5" y="-231.5" font-family="sans" font-size="10.00">raw_fastq_qc</text>
</g>
<!-- 3&#45;&gt;0 -->
<g id="edge2" class="edge">
<title>3&#45;&gt;0</title>
<path fill="none" stroke="grey" stroke-width="2" d="M181.52,-215.8C182.6,-181.84 190.36,-106.48 236.5,-72 287.06,-34.22 1263.07,-21.61 1467.25,-19.38"/>
<polygon fill="grey" stroke="grey" stroke-width="2" points="1467.5,-22.88 1477.46,-19.27 1467.42,-15.88 1467.5,-22.88"/>
</g>
<!-- 4 -->
<g id="node5" class="node">
<title>4</title>
<path fill="none" stroke="#d85656" stroke-width="2" stroke-dasharray="5,2" d="M309.5,-540C309.5,-540 205.5,-540 205.5,-540 199.5,-540 193.5,-534 193.5,-528 193.5,-528 193.5,-516 193.5,-516 193.5,-510 199.5,-504 205.5,-504 205.5,-504 309.5,-504 309.5,-504 315.5,-504 321.5,-510 321.5,-516 321.5,-516 321.5,-528 321.5,-528 321.5,-534 315.5,-540 309.5,-540"/>
<text text-anchor="middle" x="257.5" y="-525" font-family="sans" font-size="10.00">rename_fastq</text>
<text text-anchor="middle" x="257.5" y="-514" font-family="sans" font-size="10.00">sample: CM_C4_D28_2</text>
</g>
<!-- 4&#45;&gt;3 -->
<g id="edge36" class="edge">
<title>4&#45;&gt;3</title>
<path fill="none" stroke="grey" stroke-width="2" d="M248.57,-503.7C243.6,-493.51 237.6,-480.26 233.5,-468 209.24,-395.37 192.91,-306.21 185.7,-262.21"/>
<polygon fill="grey" stroke="grey" stroke-width="2" points="189.15,-261.6 184.11,-252.28 182.24,-262.71 189.15,-261.6"/>
</g>
<!-- 16 -->
<g id="node17" class="node">
<title>16</title>
<path fill="none" stroke="#56a9d8" stroke-width="2" stroke-dasharray="5,2" d="M310.5,-468C310.5,-468 254.5,-468 254.5,-468 248.5,-468 242.5,-462 242.5,-456 242.5,-456 242.5,-444 242.5,-444 242.5,-438 248.5,-432 254.5,-432 254.5,-432 310.5,-432 310.5,-432 316.5,-432 322.5,-438 322.5,-444 322.5,-444 322.5,-456 322.5,-456 322.5,-462 316.5,-468 310.5,-468"/>
<text text-anchor="middle" x="282.5" y="-447.5" font-family="sans" font-size="10.00">trim_adapter</text>
</g>
<!-- 4&#45;&gt;16 -->
<g id="edge44" class="edge">
<title>4&#45;&gt;16</title>
<path fill="none" stroke="grey" stroke-width="2" d="M263.68,-503.7C266.5,-495.81 269.89,-486.3 273.02,-477.55"/>
<polygon fill="grey" stroke="grey" stroke-width="2" points="276.32,-478.7 276.39,-468.1 269.73,-476.34 276.32,-478.7"/>
</g>
<!-- 5 -->
<g id="node6" class="node">
<title>5</title>
<path fill="none" stroke="#56d892" stroke-width="2" stroke-dasharray="5,2" d="M1292,-108C1292,-108 1235,-108 1235,-108 1229,-108 1223,-102 1223,-96 1223,-96 1223,-84 1223,-84 1223,-78 1229,-72 1235,-72 1235,-72 1292,-72 1292,-72 1298,-72 1304,-78 1304,-84 1304,-84 1304,-96 1304,-96 1304,-102 1298,-108 1292,-108"/>
<text text-anchor="middle" x="1263.5" y="-87.5" font-family="sans" font-size="10.00">raw_fastq_qc</text>
</g>
<!-- 5&#45;&gt;0 -->
<g id="edge3" class="edge">
<title>5&#45;&gt;0</title>
<path fill="none" stroke="grey" stroke-width="2" d="M1304.08,-75.27C1307.6,-74.14 1311.11,-73.04 1314.5,-72 1367.41,-55.81 1429.21,-38.95 1467.61,-28.71"/>
<polygon fill="grey" stroke="grey" stroke-width="2" points="1468.55,-32.08 1477.32,-26.13 1466.75,-25.31 1468.55,-32.08"/>
</g>
<!-- 6 -->
<g id="node7" class="node">
<title>6</title>
<path fill="none" stroke="#d85656" stroke-width="2" stroke-dasharray="5,2" d="M1353.5,-540C1353.5,-540 1249.5,-540 1249.5,-540 1243.5,-540 1237.5,-534 1237.5,-528 1237.5,-528 1237.5,-516 1237.5,-516 1237.5,-510 1243.5,-504 1249.5,-504 1249.5,-504 1353.5,-504 1353.5,-504 1359.5,-504 1365.5,-510 1365.5,-516 1365.5,-516 1365.5,-528 1365.5,-528 1365.5,-534 1359.5,-540 1353.5,-540"/>
<text text-anchor="middle" x="1301.5" y="-525" font-family="sans" font-size="10.00">rename_fastq</text>
<text text-anchor="middle" x="1301.5" y="-514" font-family="sans" font-size="10.00">sample: CM_C4_D28_3</text>
</g>
<!-- 6&#45;&gt;5 -->
<g id="edge37" class="edge">
<title>6&#45;&gt;5</title>
<path fill="none" stroke="grey" stroke-width="2" d="M1310,-503.99C1322.27,-477.82 1343.5,-425.79 1343.5,-379 1343.5,-379 1343.5,-379 1343.5,-305 1343.5,-233.21 1303.51,-155.97 1280.08,-116.86"/>
<polygon fill="grey" stroke="grey" stroke-width="2" points="1283,-114.92 1274.79,-108.21 1277.02,-118.57 1283,-114.92"/>
</g>
<!-- 18 -->
<g id="node19" class="node">
<title>18</title>
<path fill="none" stroke="#56a9d8" stroke-width="2" stroke-dasharray="5,2" d="M1288.5,-468C1288.5,-468 1232.5,-468 1232.5,-468 1226.5,-468 1220.5,-462 1220.5,-456 1220.5,-456 1220.5,-444 1220.5,-444 1220.5,-438 1226.5,-432 1232.5,-432 1232.5,-432 1288.5,-432 1288.5,-432 1294.5,-432 1300.5,-438 1300.5,-444 1300.5,-444 1300.5,-456 1300.5,-456 1300.5,-462 1294.5,-468 1288.5,-468"/>
<text text-anchor="middle" x="1260.5" y="-447.5" font-family="sans" font-size="10.00">trim_adapter</text>
</g>
<!-- 6&#45;&gt;18 -->
<g id="edge46" class="edge">
<title>6&#45;&gt;18</title>
<path fill="none" stroke="grey" stroke-width="2" d="M1291.37,-503.7C1286.65,-495.64 1280.94,-485.89 1275.72,-476.98"/>
<polygon fill="grey" stroke="grey" stroke-width="2" points="1278.59,-474.96 1270.52,-468.1 1272.55,-478.5 1278.59,-474.96"/>
</g>
<!-- 7 -->
<g id="node8" class="node">
<title>7</title>
<path fill="none" stroke="#56d892" stroke-width="2" stroke-dasharray="5,2" d="M2464,-324C2464,-324 2407,-324 2407,-324 2401,-324 2395,-318 2395,-312 2395,-312 2395,-300 2395,-300 2395,-294 2401,-288 2407,-288 2407,-288 2464,-288 2464,-288 2470,-288 2476,-294 2476,-300 2476,-300 2476,-312 2476,-312 2476,-318 2470,-324 2464,-324"/>
<text text-anchor="middle" x="2435.5" y="-303.5" font-family="sans" font-size="10.00">raw_fastq_qc</text>
</g>
<!-- 7&#45;&gt;0 -->
<g id="edge4" class="edge">
<title>7&#45;&gt;0</title>
<path fill="none" stroke="grey" stroke-width="2" d="M2434.04,-287.86C2429.51,-238.89 2413.89,-100.1 2380.5,-72 2315.62,-17.39 1701.05,-17.68 1541.96,-18.68"/>
<polygon fill="grey" stroke="grey" stroke-width="2" points="1541.7,-15.18 1531.72,-18.75 1541.75,-22.18 1541.7,-15.18"/>
</g>
<!-- 8 -->
<g id="node9" class="node">
<title>8</title>
<path fill="none" stroke="#d85656" stroke-width="2" stroke-dasharray="5,2" d="M2404.5,-540C2404.5,-540 2300.5,-540 2300.5,-540 2294.5,-540 2288.5,-534 2288.5,-528 2288.5,-528 2288.5,-516 2288.5,-516 2288.5,-510 2294.5,-504 2300.5,-504 2300.5,-504 2404.5,-504 2404.5,-504 2410.5,-504 2416.5,-510 2416.5,-516 2416.5,-516 2416.5,-528 2416.5,-528 2416.5,-534 2410.5,-540 2404.5,-540"/>
<text text-anchor="middle" x="2352.5" y="-525" font-family="sans" font-size="10.00">rename_fastq</text>
<text text-anchor="middle" x="2352.5" y="-514" font-family="sans" font-size="10.00">sample: CM_P4_D28_1</text>
</g>
<!-- 8&#45;&gt;7 -->
<g id="edge38" class="edge">
<title>8&#45;&gt;7</title>
<path fill="none" stroke="grey" stroke-width="2" d="M2363.13,-503.85C2377.26,-480.35 2402.12,-436.43 2416.5,-396 2423.68,-375.81 2428.59,-352.04 2431.61,-334.14"/>
<polygon fill="grey" stroke="grey" stroke-width="2" points="2435.09,-334.52 2433.22,-324.1 2428.18,-333.42 2435.09,-334.52"/>
</g>
<!-- 20 -->
<g id="node21" class="node">
<title>20</title>
<path fill="none" stroke="#56a9d8" stroke-width="2" stroke-dasharray="5,2" d="M2296.5,-468C2296.5,-468 2240.5,-468 2240.5,-468 2234.5,-468 2228.5,-462 2228.5,-456 2228.5,-456 2228.5,-444 2228.5,-444 2228.5,-438 2234.5,-432 2240.5,-432 2240.5,-432 2296.5,-432 2296.5,-432 2302.5,-432 2308.5,-438 2308.5,-444 2308.5,-444 2308.5,-456 2308.5,-456 2308.5,-462 2302.5,-468 2296.5,-468"/>
<text text-anchor="middle" x="2268.5" y="-447.5" font-family="sans" font-size="10.00">trim_adapter</text>
</g>
<!-- 8&#45;&gt;20 -->
<g id="edge48" class="edge">
<title>8&#45;&gt;20</title>
<path fill="none" stroke="grey" stroke-width="2" d="M2331.74,-503.7C2321.26,-494.97 2308.39,-484.24 2297,-474.75"/>
<polygon fill="grey" stroke="grey" stroke-width="2" points="2298.95,-471.82 2289.03,-468.1 2294.47,-477.19 2298.95,-471.82"/>
</g>
<!-- 9 -->
<g id="node10" class="node">
<title>9</title>
<path fill="none" stroke="#56d892" stroke-width="2" stroke-dasharray="5,2" d="M2800,-108C2800,-108 2743,-108 2743,-108 2737,-108 2731,-102 2731,-96 2731,-96 2731,-84 2731,-84 2731,-78 2737,-72 2743,-72 2743,-72 2800,-72 2800,-72 2806,-72 2812,-78 2812,-84 2812,-84 2812,-96 2812,-96 2812,-102 2806,-108 2800,-108"/>
<text text-anchor="middle" x="2771.5" y="-87.5" font-family="sans" font-size="10.00">raw_fastq_qc</text>
</g>
<!-- 9&#45;&gt;0 -->
<g id="edge5" class="edge">
<title>9&#45;&gt;0</title>
<path fill="none" stroke="grey" stroke-width="2" d="M2730.94,-75.19C2726.11,-73.93 2721.23,-72.82 2716.5,-72 2482.38,-31.39 1719.39,-21.19 1541.72,-19.35"/>
<polygon fill="grey" stroke="grey" stroke-width="2" points="1541.6,-15.84 1531.57,-19.24 1541.53,-22.84 1541.6,-15.84"/>
</g>
<!-- 10 -->
<g id="node11" class="node">
<title>10</title>
<path fill="none" stroke="#d85656" stroke-width="2" stroke-dasharray="5,2" d="M2795.5,-540C2795.5,-540 2691.5,-540 2691.5,-540 2685.5,-540 2679.5,-534 2679.5,-528 2679.5,-528 2679.5,-516 2679.5,-516 2679.5,-510 2685.5,-504 2691.5,-504 2691.5,-504 2795.5,-504 2795.5,-504 2801.5,-504 2807.5,-510 2807.5,-516 2807.5,-516 2807.5,-528 2807.5,-528 2807.5,-534 2801.5,-540 2795.5,-540"/>
<text text-anchor="middle" x="2743.5" y="-525" font-family="sans" font-size="10.00">rename_fastq</text>
<text text-anchor="middle" x="2743.5" y="-514" font-family="sans" font-size="10.00">sample: CM_P4_D28_2</text>
</g>
<!-- 10&#45;&gt;9 -->
<g id="edge39" class="edge">
<title>10&#45;&gt;9</title>
<path fill="none" stroke="grey" stroke-width="2" d="M2752.62,-503.61C2765.5,-477.36 2787.5,-425.71 2787.5,-379 2787.5,-379 2787.5,-379 2787.5,-233 2787.5,-192.96 2781.14,-146.97 2776.44,-118.45"/>
<polygon fill="grey" stroke="grey" stroke-width="2" points="2779.86,-117.69 2774.74,-108.42 2772.96,-118.86 2779.86,-117.69"/>
</g>
<!-- 22 -->
<g id="node23" class="node">
<title>22</title>
<path fill="none" stroke="#56a9d8" stroke-width="2" stroke-dasharray="5,2" d="M2745.5,-468C2745.5,-468 2689.5,-468 2689.5,-468 2683.5,-468 2677.5,-462 2677.5,-456 2677.5,-456 2677.5,-444 2677.5,-444 2677.5,-438 2683.5,-432 2689.5,-432 2689.5,-432 2745.5,-432 2745.5,-432 2751.5,-432 2757.5,-438 2757.5,-444 2757.5,-444 2757.5,-456 2757.5,-456 2757.5,-462 2751.5,-468 2745.5,-468"/>
<text text-anchor="middle" x="2717.5" y="-447.5" font-family="sans" font-size="10.00">trim_adapter</text>
</g>
<!-- 10&#45;&gt;22 -->
<g id="edge50" class="edge">
<title>10&#45;&gt;22</title>
<path fill="none" stroke="grey" stroke-width="2" d="M2737.07,-503.7C2734.14,-495.81 2730.61,-486.3 2727.36,-477.55"/>
<polygon fill="grey" stroke="grey" stroke-width="2" points="2730.62,-476.26 2723.85,-468.1 2724.05,-478.7 2730.62,-476.26"/>
</g>
<!-- 11 -->
<g id="node12" class="node">
<title>11</title>
<path fill="none" stroke="#56d892" stroke-width="2" stroke-dasharray="5,2" d="M3000,-108C3000,-108 2943,-108 2943,-108 2937,-108 2931,-102 2931,-96 2931,-96 2931,-84 2931,-84 2931,-78 2937,-72 2943,-72 2943,-72 3000,-72 3000,-72 3006,-72 3012,-78 3012,-84 3012,-84 3012,-96 3012,-96 3012,-102 3006,-108 3000,-108"/>
<text text-anchor="middle" x="2971.5" y="-87.5" font-family="sans" font-size="10.00">raw_fastq_qc</text>
</g>
<!-- 11&#45;&gt;0 -->
<g id="edge6" class="edge">
<title>11&#45;&gt;0</title>
<path fill="none" stroke="grey" stroke-width="2" d="M2930.84,-73.88C2928.04,-73.15 2925.24,-72.52 2922.5,-72 2646.42,-20.15 1736.91,-18.62 1541.63,-18.9"/>
<polygon fill="grey" stroke="grey" stroke-width="2" points="1541.58,-15.4 1531.59,-18.92 1541.6,-22.4 1541.58,-15.4"/>
</g>
<!-- 12 -->
<g id="node13" class="node">
<title>12</title>
<path fill="none" stroke="#d85656" stroke-width="2" stroke-dasharray="5,2" d="M2952.5,-540C2952.5,-540 2848.5,-540 2848.5,-540 2842.5,-540 2836.5,-534 2836.5,-528 2836.5,-528 2836.5,-516 2836.5,-516 2836.5,-510 2842.5,-504 2848.5,-504 2848.5,-504 2952.5,-504 2952.5,-504 2958.5,-504 2964.5,-510 2964.5,-516 2964.5,-516 2964.5,-528 2964.5,-528 2964.5,-534 2958.5,-540 2952.5,-540"/>
<text text-anchor="middle" x="2900.5" y="-525" font-family="sans" font-size="10.00">rename_fastq</text>
<text text-anchor="middle" x="2900.5" y="-514" font-family="sans" font-size="10.00">sample: CM_P4_D28_3</text>
</g>
<!-- 12&#45;&gt;11 -->
<g id="edge40" class="edge">
<title>12&#45;&gt;11</title>
<path fill="none" stroke="grey" stroke-width="2" d="M2911.9,-503.9C2928.01,-478.02 2955.5,-426.85 2955.5,-379 2955.5,-379 2955.5,-379 2955.5,-233 2955.5,-192.96 2961.86,-146.97 2966.56,-118.45"/>
<polygon fill="grey" stroke="grey" stroke-width="2" points="2970.04,-118.86 2968.26,-108.42 2963.14,-117.69 2970.04,-118.86"/>
</g>
<!-- 24 -->
<g id="node25" class="node">
<title>24</title>
<path fill="none" stroke="#56a9d8" stroke-width="2" stroke-dasharray="5,2" d="M2899.5,-468C2899.5,-468 2843.5,-468 2843.5,-468 2837.5,-468 2831.5,-462 2831.5,-456 2831.5,-456 2831.5,-444 2831.5,-444 2831.5,-438 2837.5,-432 2843.5,-432 2843.5,-432 2899.5,-432 2899.5,-432 2905.5,-432 2911.5,-438 2911.5,-444 2911.5,-444 2911.5,-456 2911.5,-456 2911.5,-462 2905.5,-468 2899.5,-468"/>
<text text-anchor="middle" x="2871.5" y="-447.5" font-family="sans" font-size="10.00">trim_adapter</text>
</g>
<!-- 12&#45;&gt;24 -->
<g id="edge52" class="edge">
<title>12&#45;&gt;24</title>
<path fill="none" stroke="grey" stroke-width="2" d="M2893.33,-503.7C2890.07,-495.81 2886.13,-486.3 2882.5,-477.55"/>
<polygon fill="grey" stroke="grey" stroke-width="2" points="2885.65,-476 2878.59,-468.1 2879.18,-478.68 2885.65,-476"/>
</g>
<!-- 13 -->
<g id="node14" class="node">
<title>13</title>
<path fill="none" stroke="#b6d856" stroke-width="2" stroke-dasharray="5,2" d="M171,-108C171,-108 112,-108 112,-108 106,-108 100,-102 100,-96 100,-96 100,-84 100,-84 100,-78 106,-72 112,-72 112,-72 171,-72 171,-72 177,-72 183,-78 183,-84 183,-84 183,-96 183,-96 183,-102 177,-108 171,-108"/>
<text text-anchor="middle" x="141.5" y="-87.5" font-family="sans" font-size="10.00">trim_fastq_qc</text>
</g>
<!-- 13&#45;&gt;0 -->
<g id="edge7" class="edge">
<title>13&#45;&gt;0</title>
<path fill="none" stroke="grey" stroke-width="2" d="M183.24,-75.26C188.34,-73.97 193.51,-72.83 198.5,-72 452.38,-29.67 1281.8,-20.74 1467.42,-19.26"/>
<polygon fill="grey" stroke="grey" stroke-width="2" points="1467.52,-22.76 1477.5,-19.18 1467.47,-15.76 1467.52,-22.76"/>
</g>
<!-- 14&#45;&gt;13 -->
<g id="edge41" class="edge">
<title>14&#45;&gt;13</title>
<path fill="none" stroke="grey" stroke-width="2" d="M100.43,-431.76C91.66,-405.28 76.5,-352.86 76.5,-307 76.5,-307 76.5,-307 76.5,-233 76.5,-188.96 102.67,-143.64 121.79,-116.4"/>
<polygon fill="grey" stroke="grey" stroke-width="2" points="124.69,-118.36 127.72,-108.21 119.02,-114.26 124.69,-118.36"/>
</g>
<!-- 26 -->
<g id="node27" class="node">
<title>26</title>
<path fill="none" stroke="#68d856" stroke-width="2" stroke-dasharray="5,2" d="M172,-396C172,-396 117,-396 117,-396 111,-396 105,-390 105,-384 105,-384 105,-372 105,-372 105,-366 111,-360 117,-360 117,-360 172,-360 172,-360 178,-360 184,-366 184,-372 184,-372 184,-384 184,-384 184,-390 178,-396 172,-396"/>
<text text-anchor="middle" x="144.5" y="-375.5" font-family="sans" font-size="10.00">bowtie_align</text>
</g>
<!-- 14&#45;&gt;26 -->
<g id="edge54" class="edge">
<title>14&#45;&gt;26</title>
<path fill="none" stroke="grey" stroke-width="2" d="M115.89,-431.7C120.26,-423.64 125.56,-413.89 130.4,-404.98"/>
<polygon fill="grey" stroke="grey" stroke-width="2" points="133.52,-406.56 135.21,-396.1 127.37,-403.22 133.52,-406.56"/>
</g>
<!-- 15 -->
<g id="node16" class="node">
<title>15</title>
<path fill="none" stroke="#b6d856" stroke-width="2" stroke-dasharray="5,2" d="M312,-396C312,-396 253,-396 253,-396 247,-396 241,-390 241,-384 241,-384 241,-372 241,-372 241,-366 247,-360 253,-360 253,-360 312,-360 312,-360 318,-360 324,-366 324,-372 324,-372 324,-384 324,-384 324,-390 318,-396 312,-396"/>
<text text-anchor="middle" x="282.5" y="-375.5" font-family="sans" font-size="10.00">trim_fastq_qc</text>
</g>
<!-- 15&#45;&gt;0 -->
<g id="edge8" class="edge">
<title>15&#45;&gt;0</title>
<path fill="none" stroke="grey" stroke-width="2" d="M276.02,-359.79C266.67,-333.36 250.5,-280.99 250.5,-235 250.5,-235 250.5,-235 250.5,-161 250.5,-105.68 287.02,-94.61 337.5,-72 442.59,-24.94 1279.55,-19.66 1467.24,-19.07"/>
<polygon fill="grey" stroke="grey" stroke-width="2" points="1467.43,-22.57 1477.42,-19.05 1467.41,-15.57 1467.43,-22.57"/>
</g>
<!-- 16&#45;&gt;15 -->
<g id="edge43" class="edge">
<title>16&#45;&gt;15</title>
<path fill="none" stroke="grey" stroke-width="2" d="M282.5,-431.7C282.5,-423.98 282.5,-414.71 282.5,-406.11"/>
<polygon fill="grey" stroke="grey" stroke-width="2" points="286,-406.1 282.5,-396.1 279,-406.1 286,-406.1"/>
</g>
<!-- 28 -->
<g id="node29" class="node">
<title>28</title>
<path fill="none" stroke="#68d856" stroke-width="2" stroke-dasharray="5,2" d="M721,-396C721,-396 666,-396 666,-396 660,-396 654,-390 654,-384 654,-384 654,-372 654,-372 654,-366 660,-360 666,-360 666,-360 721,-360 721,-360 727,-360 733,-366 733,-372 733,-372 733,-384 733,-384 733,-390 727,-396 721,-396"/>
<text text-anchor="middle" x="693.5" y="-375.5" font-family="sans" font-size="10.00">bowtie_align</text>
</g>
<!-- 16&#45;&gt;28 -->
<g id="edge56" class="edge">
<title>16&#45;&gt;28</title>
<path fill="none" stroke="grey" stroke-width="2" d="M322.66,-442.16C398.28,-429.28 561.59,-401.47 643.92,-387.44"/>
<polygon fill="grey" stroke="grey" stroke-width="2" points="644.51,-390.89 653.79,-385.76 643.34,-383.99 644.51,-390.89"/>
</g>
<!-- 17 -->
<g id="node18" class="node">
<title>17</title>
<path fill="none" stroke="#b6d856" stroke-width="2" stroke-dasharray="5,2" d="M620,-324C620,-324 561,-324 561,-324 555,-324 549,-318 549,-312 549,-312 549,-300 549,-300 549,-294 555,-288 561,-288 561,-288 620,-288 620,-288 626,-288 632,-294 632,-300 632,-300 632,-312 632,-312 632,-318 626,-324 620,-324"/>
<text text-anchor="middle" x="590.5" y="-303.5" font-family="sans" font-size="10.00">trim_fastq_qc</text>
</g>
<!-- 17&#45;&gt;0 -->
<g id="edge9" class="edge">
<title>17&#45;&gt;0</title>
<path fill="none" stroke="grey" stroke-width="2" d="M590.09,-287.95C590.05,-242.78 597.07,-120.16 671.5,-72 738.85,-28.42 1312.93,-20.58 1466.73,-19.25"/>
<polygon fill="grey" stroke="grey" stroke-width="2" points="1467.09,-22.75 1477.06,-19.17 1467.03,-15.75 1467.09,-22.75"/>
</g>
<!-- 18&#45;&gt;17 -->
<g id="edge45" class="edge">
<title>18&#45;&gt;17</title>
<path fill="none" stroke="grey" stroke-width="2" d="M1220.21,-447.61C1091.28,-442.9 694.33,-426.05 645.5,-396 622.63,-381.93 607.84,-354.44 599.41,-333.71"/>
<polygon fill="grey" stroke="grey" stroke-width="2" points="602.61,-332.27 595.78,-324.17 596.07,-334.76 602.61,-332.27"/>
</g>
<!-- 30 -->
<g id="node31" class="node">
<title>30</title>
<path fill="none" stroke="#68d856" stroke-width="2" stroke-dasharray="5,2" d="M1288,-396C1288,-396 1233,-396 1233,-396 1227,-396 1221,-390 1221,-384 1221,-384 1221,-372 1221,-372 1221,-366 1227,-360 1233,-360 1233,-360 1288,-360 1288,-360 1294,-360 1300,-366 1300,-372 1300,-372 1300,-384 1300,-384 1300,-390 1294,-396 1288,-396"/>
<text text-anchor="middle" x="1260.5" y="-375.5" font-family="sans" font-size="10.00">bowtie_align</text>
</g>
<!-- 18&#45;&gt;30 -->
<g id="edge58" class="edge">
<title>18&#45;&gt;30</title>
<path fill="none" stroke="grey" stroke-width="2" d="M1260.5,-431.7C1260.5,-423.98 1260.5,-414.71 1260.5,-406.11"/>
<polygon fill="grey" stroke="grey" stroke-width="2" points="1264,-406.1 1260.5,-396.1 1257,-406.1 1264,-406.1"/>
</g>
<!-- 19 -->
<g id="node20" class="node">
<title>19</title>
<path fill="none" stroke="#b6d856" stroke-width="2" stroke-dasharray="5,2" d="M2298,-396C2298,-396 2239,-396 2239,-396 2233,-396 2227,-390 2227,-384 2227,-384 2227,-372 2227,-372 2227,-366 2233,-360 2239,-360 2239,-360 2298,-360 2298,-360 2304,-360 2310,-366 2310,-372 2310,-372 2310,-384 2310,-384 2310,-390 2304,-396 2298,-396"/>
<text text-anchor="middle" x="2268.5" y="-375.5" font-family="sans" font-size="10.00">trim_fastq_qc</text>
</g>
<!-- 19&#45;&gt;0 -->
<g id="edge10" class="edge">
<title>19&#45;&gt;0</title>
<path fill="none" stroke="grey" stroke-width="2" d="M2290.74,-359.92C2319.65,-335.6 2366.5,-288.02 2366.5,-235 2366.5,-235 2366.5,-235 2366.5,-161 2366.5,-94.24 2308.15,-95.07 2245.5,-72 2114.24,-23.67 1673.46,-19.19 1541.89,-18.95"/>
<polygon fill="grey" stroke="grey" stroke-width="2" points="1541.54,-15.45 1531.54,-18.94 1541.53,-22.45 1541.54,-15.45"/>
</g>
<!-- 20&#45;&gt;19 -->
<g id="edge47" class="edge">
<title>20&#45;&gt;19</title>
<path fill="none" stroke="grey" stroke-width="2" d="M2268.5,-431.7C2268.5,-423.98 2268.5,-414.71 2268.5,-406.11"/>
<polygon fill="grey" stroke="grey" stroke-width="2" points="2272,-406.1 2268.5,-396.1 2265,-406.1 2272,-406.1"/>
</g>
<!-- 32 -->
<g id="node33" class="node">
<title>32</title>
<path fill="none" stroke="#68d856" stroke-width="2" stroke-dasharray="5,2" d="M2042,-396C2042,-396 1987,-396 1987,-396 1981,-396 1975,-390 1975,-384 1975,-384 1975,-372 1975,-372 1975,-366 1981,-360 1987,-360 1987,-360 2042,-360 2042,-360 2048,-360 2054,-366 2054,-372 2054,-372 2054,-384 2054,-384 2054,-390 2048,-396 2042,-396"/>
<text text-anchor="middle" x="2014.5" y="-375.5" font-family="sans" font-size="10.00">bowtie_align</text>
</g>
<!-- 20&#45;&gt;32 -->
<g id="edge60" class="edge">
<title>20&#45;&gt;32</title>
<path fill="none" stroke="grey" stroke-width="2" d="M2228.25,-437.91C2183.72,-425.64 2111.93,-405.85 2063.99,-392.64"/>
<polygon fill="grey" stroke="grey" stroke-width="2" points="2064.71,-389.21 2054.14,-389.92 2062.85,-395.96 2064.71,-389.21"/>
</g>
<!-- 21 -->
<g id="node22" class="node">
<title>21</title>
<path fill="none" stroke="#b6d856" stroke-width="2" stroke-dasharray="5,2" d="M2747,-252C2747,-252 2688,-252 2688,-252 2682,-252 2676,-246 2676,-240 2676,-240 2676,-228 2676,-228 2676,-222 2682,-216 2688,-216 2688,-216 2747,-216 2747,-216 2753,-216 2759,-222 2759,-228 2759,-228 2759,-240 2759,-240 2759,-246 2753,-252 2747,-252"/>
<text text-anchor="middle" x="2717.5" y="-231.5" font-family="sans" font-size="10.00">trim_fastq_qc</text>
</g>
<!-- 21&#45;&gt;0 -->
<g id="edge11" class="edge">
<title>21&#45;&gt;0</title>
<path fill="none" stroke="grey" stroke-width="2" d="M2719.3,-215.75C2721.76,-182.03 2721.67,-107.57 2678.5,-72 2633.61,-35.02 1737.03,-21.87 1541.81,-19.43"/>
<polygon fill="grey" stroke="grey" stroke-width="2" points="1541.8,-15.93 1531.76,-19.31 1541.71,-22.93 1541.8,-15.93"/>
</g>
<!-- 22&#45;&gt;21 -->
<g id="edge49" class="edge">
<title>22&#45;&gt;21</title>
<path fill="none" stroke="grey" stroke-width="2" d="M2717.5,-431.85C2717.5,-394.83 2717.5,-307.18 2717.5,-262.39"/>
<polygon fill="grey" stroke="grey" stroke-width="2" points="2721,-262.23 2717.5,-252.23 2714,-262.23 2721,-262.23"/>
</g>
<!-- 34 -->
<g id="node35" class="node">
<title>34</title>
<path fill="none" stroke="#68d856" stroke-width="2" stroke-dasharray="5,2" d="M2395,-396C2395,-396 2340,-396 2340,-396 2334,-396 2328,-390 2328,-384 2328,-384 2328,-372 2328,-372 2328,-366 2334,-360 2340,-360 2340,-360 2395,-360 2395,-360 2401,-360 2407,-366 2407,-372 2407,-372 2407,-384 2407,-384 2407,-390 2401,-396 2395,-396"/>
<text text-anchor="middle" x="2367.5" y="-375.5" font-family="sans" font-size="10.00">bowtie_align</text>
</g>
<!-- 22&#45;&gt;34 -->
<g id="edge62" class="edge">
<title>22&#45;&gt;34</title>
<path fill="none" stroke="grey" stroke-width="2" d="M2677.35,-440.97C2613,-428.1 2486.93,-402.89 2417.07,-388.91"/>
<polygon fill="grey" stroke="grey" stroke-width="2" points="2417.67,-385.47 2407.18,-386.94 2416.3,-392.33 2417.67,-385.47"/>
</g>
<!-- 23 -->
<g id="node24" class="node">
<title>23</title>
<path fill="none" stroke="#b6d856" stroke-width="2" stroke-dasharray="5,2" d="M2901,-108C2901,-108 2842,-108 2842,-108 2836,-108 2830,-102 2830,-96 2830,-96 2830,-84 2830,-84 2830,-78 2836,-72 2842,-72 2842,-72 2901,-72 2901,-72 2907,-72 2913,-78 2913,-84 2913,-84 2913,-96 2913,-96 2913,-102 2907,-108 2901,-108"/>
<text text-anchor="middle" x="2871.5" y="-87.5" font-family="sans" font-size="10.00">trim_fastq_qc</text>
</g>
<!-- 23&#45;&gt;0 -->
<g id="edge12" class="edge">
<title>23&#45;&gt;0</title>
<path fill="none" stroke="grey" stroke-width="2" d="M2830,-73.89C2827.15,-73.16 2824.29,-72.52 2821.5,-72 2566.33,-24.52 1729.27,-19.57 1541.92,-19.06"/>
<polygon fill="grey" stroke="grey" stroke-width="2" points="1541.76,-15.56 1531.76,-19.03 1541.75,-22.56 1541.76,-15.56"/>
</g>
<!-- 24&#45;&gt;23 -->
<g id="edge51" class="edge">
<title>24&#45;&gt;23</title>
<path fill="none" stroke="grey" stroke-width="2" d="M2871.5,-431.95C2871.5,-405.29 2871.5,-352.11 2871.5,-307 2871.5,-307 2871.5,-307 2871.5,-233 2871.5,-193 2871.5,-146.65 2871.5,-118.08"/>
<polygon fill="grey" stroke="grey" stroke-width="2" points="2875,-118.05 2871.5,-108.05 2868,-118.05 2875,-118.05"/>
</g>
<!-- 36 -->
<g id="node37" class="node">
<title>36</title>
<path fill="none" stroke="#68d856" stroke-width="2" stroke-dasharray="5,2" d="M2635,-396C2635,-396 2580,-396 2580,-396 2574,-396 2568,-390 2568,-384 2568,-384 2568,-372 2568,-372 2568,-366 2574,-360 2580,-360 2580,-360 2635,-360 2635,-360 2641,-360 2647,-366 2647,-372 2647,-372 2647,-384 2647,-384 2647,-390 2641,-396 2635,-396"/>
<text text-anchor="middle" x="2607.5" y="-375.5" font-family="sans" font-size="10.00">bowtie_align</text>
</g>
<!-- 24&#45;&gt;36 -->
<g id="edge64" class="edge">
<title>24&#45;&gt;36</title>
<path fill="none" stroke="grey" stroke-width="2" d="M2831.4,-438.37C2784.61,-425.96 2707.24,-405.45 2656.82,-392.08"/>
<polygon fill="grey" stroke="grey" stroke-width="2" points="2657.67,-388.68 2647.11,-389.5 2655.88,-395.45 2657.67,-388.68"/>
</g>
<!-- 25 -->
<g id="node26" class="node">
<title>25</title>
<path fill="none" stroke="#567bd8" stroke-width="2" stroke-dasharray="5,2" d="M518.5,-324C518.5,-324 432.5,-324 432.5,-324 426.5,-324 420.5,-318 420.5,-312 420.5,-312 420.5,-300 420.5,-300 420.5,-294 426.5,-288 432.5,-288 432.5,-288 518.5,-288 518.5,-288 524.5,-288 530.5,-294 530.5,-300 530.5,-300 530.5,-312 530.5,-312 530.5,-318 524.5,-324 518.5,-324"/>
<text text-anchor="middle" x="475.5" y="-303.5" font-family="sans" font-size="10.00">remove_duplicates</text>
</g>
<!-- 25&#45;&gt;0 -->
<g id="edge13" class="edge">
<title>25&#45;&gt;0</title>
<path fill="none" stroke="grey" stroke-width="2" d="M422.87,-287.88C404.87,-279.64 386.11,-267.98 373.5,-252 323.92,-189.2 309.62,-123.91 370.5,-72 413.16,-35.62 1276.11,-22.04 1467.23,-19.47"/>
<polygon fill="grey" stroke="grey" stroke-width="2" points="1467.39,-22.97 1477.34,-19.34 1467.3,-15.97 1467.39,-22.97"/>
</g>
<!-- 37 -->
<g id="node38" class="node">
<title>37</title>
<path fill="none" stroke="#56d86b" stroke-width="2" stroke-dasharray="5,2" d="M520,-252C520,-252 431,-252 431,-252 425,-252 419,-246 419,-240 419,-240 419,-228 419,-228 419,-222 425,-216 431,-216 431,-216 520,-216 520,-216 526,-216 532,-222 532,-228 532,-228 532,-240 532,-240 532,-246 526,-252 520,-252"/>
<text text-anchor="middle" x="475.5" y="-231.5" font-family="sans" font-size="10.00">sort_bam_by_name</text>
</g>
<!-- 25&#45;&gt;37 -->
<g id="edge65" class="edge">
<title>25&#45;&gt;37</title>
<path fill="none" stroke="grey" stroke-width="2" d="M475.5,-287.7C475.5,-279.98 475.5,-270.71 475.5,-262.11"/>
<polygon fill="grey" stroke="grey" stroke-width="2" points="479,-262.1 475.5,-252.1 472,-262.1 479,-262.1"/>
</g>
<!-- 51 -->
<g id="node52" class="node">
<title>51</title>
<path fill="none" stroke="#56d0d8" stroke-width="2" stroke-dasharray="5,2" d="M1468,-108C1468,-108 1335,-108 1335,-108 1329,-108 1323,-102 1323,-96 1323,-96 1323,-84 1323,-84 1323,-78 1329,-72 1335,-72 1335,-72 1468,-72 1468,-72 1474,-72 1480,-78 1480,-84 1480,-84 1480,-96 1480,-96 1480,-102 1474,-108 1468,-108"/>
<text text-anchor="middle" x="1401.5" y="-87.5" font-family="sans" font-size="10.00">differential_binding_analysis</text>
</g>
<!-- 25&#45;&gt;51 -->
<g id="edge83" class="edge">
<title>25&#45;&gt;51</title>
<path fill="none" stroke="grey" stroke-width="2" d="M530.67,-289.81C533.98,-289.14 537.28,-288.52 540.5,-288 780.12,-249.11 851.51,-316.64 1085.5,-252 1136.27,-237.97 1249.54,-167.87 1296.5,-144 1316.84,-133.66 1339.42,-122.25 1358.42,-112.68"/>
<polygon fill="grey" stroke="grey" stroke-width="2" points="1360.07,-115.76 1367.43,-108.14 1356.92,-109.51 1360.07,-115.76"/>
</g>
<!-- 52 -->
<g id="node53" class="node">
<title>52</title>
<path fill="none" stroke="#d87d56" stroke-width="2" stroke-dasharray="5,2" d="M1705,-108C1705,-108 1510,-108 1510,-108 1504,-108 1498,-102 1498,-96 1498,-96 1498,-84 1498,-84 1498,-78 1504,-72 1510,-72 1510,-72 1705,-72 1705,-72 1711,-72 1717,-78 1717,-84 1717,-84 1717,-96 1717,-96 1717,-102 1711,-108 1705,-108"/>
<text text-anchor="middle" x="1607.5" y="-87.5" font-family="sans" font-size="10.00">differential_binding_analysis_per_sample</text>
</g>
<!-- 25&#45;&gt;52 -->
<g id="edge91" class="edge">
<title>25&#45;&gt;52</title>
<path fill="none" stroke="grey" stroke-width="2" d="M530.66,-289.79C533.98,-289.12 537.27,-288.51 540.5,-288 803.44,-246.11 877.82,-306.2 1138.5,-252 1172.78,-244.87 1401.31,-155.13 1434.5,-144 1468.91,-132.46 1507.5,-120.54 1539.49,-110.93"/>
<polygon fill="grey" stroke="grey" stroke-width="2" points="1540.62,-114.25 1549.2,-108.03 1538.61,-107.54 1540.62,-114.25"/>
</g>
<!-- 26&#45;&gt;25 -->
<g id="edge53" class="edge">
<title>26&#45;&gt;25</title>
<path fill="none" stroke="grey" stroke-width="2" d="M184.1,-368.63C240.08,-356.79 343.04,-335.01 410.37,-320.77"/>
<polygon fill="grey" stroke="grey" stroke-width="2" points="411.39,-324.14 420.45,-318.64 409.94,-317.29 411.39,-324.14"/>
</g>
<!-- 27 -->
<g id="node28" class="node">
<title>27</title>
<path fill="none" stroke="#567bd8" stroke-width="2" stroke-dasharray="5,2" d="M748.5,-324C748.5,-324 662.5,-324 662.5,-324 656.5,-324 650.5,-318 650.5,-312 650.5,-312 650.5,-300 650.5,-300 650.5,-294 656.5,-288 662.5,-288 662.5,-288 748.5,-288 748.5,-288 754.5,-288 760.5,-294 760.5,-300 760.5,-300 760.5,-312 760.5,-312 760.5,-318 754.5,-324 748.5,-324"/>
<text text-anchor="middle" x="705.5" y="-303.5" font-family="sans" font-size="10.00">remove_duplicates</text>
</g>
<!-- 27&#45;&gt;0 -->
<g id="edge14" class="edge">
<title>27&#45;&gt;0</title>
<path fill="none" stroke="grey" stroke-width="2" d="M650.43,-289.98C647.42,-289.28 644.43,-288.61 641.5,-288 539.81,-266.63 495.07,-312.36 410.5,-252 345.38,-205.52 342.24,-115.32 409.5,-72 454.9,-42.76 1280.53,-23.71 1467.2,-19.76"/>
<polygon fill="grey" stroke="grey" stroke-width="2" points="1467.41,-23.26 1477.34,-19.55 1467.27,-16.26 1467.41,-23.26"/>
</g>
<!-- 38 -->
<g id="node39" class="node">
<title>38</title>
<path fill="none" stroke="#56d86b" stroke-width="2" stroke-dasharray="5,2" d="M749,-252C749,-252 660,-252 660,-252 654,-252 648,-246 648,-240 648,-240 648,-228 648,-228 648,-222 654,-216 660,-216 660,-216 749,-216 749,-216 755,-216 761,-222 761,-228 761,-228 761,-240 761,-240 761,-246 755,-252 749,-252"/>
<text text-anchor="middle" x="704.5" y="-231.5" font-family="sans" font-size="10.00">sort_bam_by_name</text>
</g>
<!-- 27&#45;&gt;38 -->
<g id="edge66" class="edge">
<title>27&#45;&gt;38</title>
<path fill="none" stroke="grey" stroke-width="2" d="M705.25,-287.7C705.14,-279.98 705.01,-270.71 704.89,-262.11"/>
<polygon fill="grey" stroke="grey" stroke-width="2" points="708.39,-262.05 704.74,-252.1 701.39,-262.15 708.39,-262.05"/>
</g>
<!-- 27&#45;&gt;51 -->
<g id="edge84" class="edge">
<title>27&#45;&gt;51</title>
<path fill="none" stroke="grey" stroke-width="2" d="M760.67,-301.76C866.41,-295.04 1093.64,-278.03 1167.5,-252 1252.96,-221.89 1336.3,-152.06 1376.53,-115.04"/>
<polygon fill="grey" stroke="grey" stroke-width="2" points="1379.05,-117.47 1383.99,-108.09 1374.28,-112.35 1379.05,-117.47"/>
</g>
<!-- 27&#45;&gt;52 -->
<g id="edge92" class="edge">
<title>27&#45;&gt;52</title>
<path fill="none" stroke="grey" stroke-width="2" d="M760.73,-305.29C859.35,-304.56 1071.5,-297.26 1243.5,-252 1367.7,-219.32 1503.42,-149.23 1568.47,-113.27"/>
<polygon fill="grey" stroke="grey" stroke-width="2" points="1570.51,-116.15 1577.54,-108.23 1567.1,-110.03 1570.51,-116.15"/>
</g>
<!-- 28&#45;&gt;27 -->
<g id="edge55" class="edge">
<title>28&#45;&gt;27</title>
<path fill="none" stroke="grey" stroke-width="2" d="M696.47,-359.7C697.79,-351.98 699.38,-342.71 700.85,-334.11"/>
<polygon fill="grey" stroke="grey" stroke-width="2" points="704.33,-334.55 702.57,-324.1 697.43,-333.37 704.33,-334.55"/>
</g>
<!-- 29 -->
<g id="node30" class="node">
<title>29</title>
<path fill="none" stroke="#567bd8" stroke-width="2" stroke-dasharray="5,2" d="M1303.5,-324C1303.5,-324 1217.5,-324 1217.5,-324 1211.5,-324 1205.5,-318 1205.5,-312 1205.5,-312 1205.5,-300 1205.5,-300 1205.5,-294 1211.5,-288 1217.5,-288 1217.5,-288 1303.5,-288 1303.5,-288 1309.5,-288 1315.5,-294 1315.5,-300 1315.5,-300 1315.5,-312 1315.5,-312 1315.5,-318 1309.5,-324 1303.5,-324"/>
<text text-anchor="middle" x="1260.5" y="-303.5" font-family="sans" font-size="10.00">remove_duplicates</text>
</g>
<!-- 29&#45;&gt;0 -->
<g id="edge15" class="edge">
<title>29&#45;&gt;0</title>
<path fill="none" stroke="grey" stroke-width="2" d="M1248.71,-287.75C1221.53,-245.67 1160.77,-136.44 1214.5,-72 1246.22,-33.96 1395.77,-23.14 1466.82,-20.13"/>
<polygon fill="grey" stroke="grey" stroke-width="2" points="1467.27,-23.62 1477.12,-19.73 1466.99,-16.62 1467.27,-23.62"/>
</g>
<!-- 39 -->
<g id="node40" class="node">
<title>39</title>
<path fill="none" stroke="#56d86b" stroke-width="2" stroke-dasharray="5,2" d="M1064,-252C1064,-252 975,-252 975,-252 969,-252 963,-246 963,-240 963,-240 963,-228 963,-228 963,-222 969,-216 975,-216 975,-216 1064,-216 1064,-216 1070,-216 1076,-222 1076,-228 1076,-228 1076,-240 1076,-240 1076,-246 1070,-252 1064,-252"/>
<text text-anchor="middle" x="1019.5" y="-231.5" font-family="sans" font-size="10.00">sort_bam_by_name</text>
</g>
<!-- 29&#45;&gt;39 -->
<g id="edge67" class="edge">
<title>29&#45;&gt;39</title>
<path fill="none" stroke="grey" stroke-width="2" d="M1205.21,-288.94C1169.75,-278.64 1123.5,-265.21 1086.03,-254.32"/>
<polygon fill="grey" stroke="grey" stroke-width="2" points="1086.79,-250.9 1076.21,-251.47 1084.83,-257.62 1086.79,-250.9"/>
</g>
<!-- 29&#45;&gt;51 -->
<g id="edge85" class="edge">
<title>29&#45;&gt;51</title>
<path fill="none" stroke="grey" stroke-width="2" d="M1283.37,-287.82C1295.16,-278.19 1309.18,-265.43 1319.5,-252 1352.4,-209.17 1378.14,-151.12 1391.47,-117.7"/>
<polygon fill="grey" stroke="grey" stroke-width="2" points="1394.81,-118.75 1395.2,-108.16 1388.3,-116.2 1394.81,-118.75"/>
</g>
<!-- 29&#45;&gt;52 -->
<g id="edge93" class="edge">
<title>29&#45;&gt;52</title>
<path fill="none" stroke="grey" stroke-width="2" d="M1315.71,-291.08C1377.47,-273.35 1477.95,-237.89 1547.5,-180 1568.18,-162.79 1584.62,-136.68 1595.02,-117.19"/>
<polygon fill="grey" stroke="grey" stroke-width="2" points="1598.17,-118.71 1599.63,-108.22 1591.95,-115.51 1598.17,-118.71"/>
</g>
<!-- 30&#45;&gt;29 -->
<g id="edge57" class="edge">
<title>30&#45;&gt;29</title>
<path fill="none" stroke="grey" stroke-width="2" d="M1260.5,-359.7C1260.5,-351.98 1260.5,-342.71 1260.5,-334.11"/>
<polygon fill="grey" stroke="grey" stroke-width="2" points="1264,-334.1 1260.5,-324.1 1257,-334.1 1264,-334.1"/>
</g>
<!-- 31 -->
<g id="node32" class="node">
<title>31</title>
<path fill="none" stroke="#567bd8" stroke-width="2" stroke-dasharray="5,2" d="M1903.5,-324C1903.5,-324 1817.5,-324 1817.5,-324 1811.5,-324 1805.5,-318 1805.5,-312 1805.5,-312 1805.5,-300 1805.5,-300 1805.5,-294 1811.5,-288 1817.5,-288 1817.5,-288 1903.5,-288 1903.5,-288 1909.5,-288 1915.5,-294 1915.5,-300 1915.5,-300 1915.5,-312 1915.5,-312 1915.5,-318 1909.5,-324 1903.5,-324"/>
<text text-anchor="middle" x="1860.5" y="-303.5" font-family="sans" font-size="10.00">remove_duplicates</text>
</g>
<!-- 31&#45;&gt;0 -->
<g id="edge16" class="edge">
<title>31&#45;&gt;0</title>
<path fill="none" stroke="grey" stroke-width="2" d="M1892.55,-287.88C1905.62,-279.05 1919.32,-266.97 1926.5,-252 1933.42,-237.57 1928.76,-231.84 1926.5,-216 1915.3,-137.59 1893.26,-105.53 1821.5,-72 1727.79,-28.21 1603.58,-20.05 1542.18,-18.88"/>
<polygon fill="grey" stroke="grey" stroke-width="2" points="1541.86,-15.37 1531.81,-18.74 1541.77,-22.37 1541.86,-15.37"/>
</g>
<!-- 40 -->
<g id="node41" class="node">
<title>40</title>
<path fill="none" stroke="#56d86b" stroke-width="2" stroke-dasharray="5,2" d="M1905,-252C1905,-252 1816,-252 1816,-252 1810,-252 1804,-246 1804,-240 1804,-240 1804,-228 1804,-228 1804,-222 1810,-216 1816,-216 1816,-216 1905,-216 1905,-216 1911,-216 1917,-222 1917,-228 1917,-228 1917,-240 1917,-240 1917,-246 1911,-252 1905,-252"/>
<text text-anchor="middle" x="1860.5" y="-231.5" font-family="sans" font-size="10.00">sort_bam_by_name</text>
</g>
<!-- 31&#45;&gt;40 -->
<g id="edge68" class="edge">
<title>31&#45;&gt;40</title>
<path fill="none" stroke="grey" stroke-width="2" d="M1860.5,-287.7C1860.5,-279.98 1860.5,-270.71 1860.5,-262.11"/>
<polygon fill="grey" stroke="grey" stroke-width="2" points="1864,-262.1 1860.5,-252.1 1857,-262.1 1864,-262.1"/>
</g>
<!-- 31&#45;&gt;51 -->
<g id="edge86" class="edge">
<title>31&#45;&gt;51</title>
<path fill="none" stroke="grey" stroke-width="2" d="M1805.21,-305.39C1704.37,-304.94 1496.12,-298.25 1443.5,-252 1405.35,-218.47 1399.79,-155.06 1400.05,-118.63"/>
<polygon fill="grey" stroke="grey" stroke-width="2" points="1403.56,-118.32 1400.29,-108.25 1396.56,-118.16 1403.56,-118.32"/>
</g>
<!-- 31&#45;&gt;52 -->
<g id="edge94" class="edge">
<title>31&#45;&gt;52</title>
<path fill="none" stroke="grey" stroke-width="2" d="M1805.36,-299.16C1745.86,-291.69 1656.52,-276.67 1633.5,-252 1599.72,-215.79 1599.96,-153.91 1603.5,-118.33"/>
<polygon fill="grey" stroke="grey" stroke-width="2" points="1607,-118.53 1604.68,-108.19 1600.05,-117.73 1607,-118.53"/>
</g>
<!-- 32&#45;&gt;31 -->
<g id="edge59" class="edge">
<title>32&#45;&gt;31</title>
<path fill="none" stroke="grey" stroke-width="2" d="M1976.83,-359.88C1955.87,-350.35 1929.6,-338.41 1907.32,-328.28"/>
<polygon fill="grey" stroke="grey" stroke-width="2" points="1908.6,-325.02 1898.05,-324.07 1905.71,-331.39 1908.6,-325.02"/>
</g>
<!-- 33 -->
<g id="node34" class="node">
<title>33</title>
<path fill="none" stroke="#567bd8" stroke-width="2" stroke-dasharray="5,2" d="M2222.5,-324C2222.5,-324 2136.5,-324 2136.5,-324 2130.5,-324 2124.5,-318 2124.5,-312 2124.5,-312 2124.5,-300 2124.5,-300 2124.5,-294 2130.5,-288 2136.5,-288 2136.5,-288 2222.5,-288 2222.5,-288 2228.5,-288 2234.5,-294 2234.5,-300 2234.5,-300 2234.5,-312 2234.5,-312 2234.5,-318 2228.5,-324 2222.5,-324"/>
<text text-anchor="middle" x="2179.5" y="-303.5" font-family="sans" font-size="10.00">remove_duplicates</text>
</g>
<!-- 33&#45;&gt;0 -->
<g id="edge17" class="edge">
<title>33&#45;&gt;0</title>
<path fill="none" stroke="grey" stroke-width="2" d="M2204.77,-287.94C2217.86,-278.34 2233.56,-265.57 2245.5,-252 2270.27,-223.84 2279.34,-216.1 2289.5,-180 2306.58,-119.3 2256.28,-94.81 2197.5,-72 2076.31,-24.97 1668.19,-19.56 1542,-19.03"/>
<polygon fill="grey" stroke="grey" stroke-width="2" points="1541.71,-15.53 1531.7,-18.99 1541.68,-22.53 1541.71,-15.53"/>
</g>
<!-- 41 -->
<g id="node42" class="node">
<title>41</title>
<path fill="none" stroke="#56d86b" stroke-width="2" stroke-dasharray="5,2" d="M2224,-252C2224,-252 2135,-252 2135,-252 2129,-252 2123,-246 2123,-240 2123,-240 2123,-228 2123,-228 2123,-222 2129,-216 2135,-216 2135,-216 2224,-216 2224,-216 2230,-216 2236,-222 2236,-228 2236,-228 2236,-240 2236,-240 2236,-246 2230,-252 2224,-252"/>
<text text-anchor="middle" x="2179.5" y="-231.5" font-family="sans" font-size="10.00">sort_bam_by_name</text>
</g>
<!-- 33&#45;&gt;41 -->
<g id="edge69" class="edge">
<title>33&#45;&gt;41</title>
<path fill="none" stroke="grey" stroke-width="2" d="M2179.5,-287.7C2179.5,-279.98 2179.5,-270.71 2179.5,-262.11"/>
<polygon fill="grey" stroke="grey" stroke-width="2" points="2183,-262.1 2179.5,-252.1 2176,-262.1 2183,-262.1"/>
</g>
<!-- 33&#45;&gt;51 -->
<g id="edge87" class="edge">
<title>33&#45;&gt;51</title>
<path fill="none" stroke="grey" stroke-width="2" d="M2124.41,-301.18C2010.46,-292.98 1752.34,-272.74 1666.5,-252 1580.74,-231.28 1554.08,-230.17 1481.5,-180 1456.49,-162.71 1433.93,-136.1 1419.19,-116.48"/>
<polygon fill="grey" stroke="grey" stroke-width="2" points="1421.92,-114.28 1413.18,-108.28 1416.27,-118.42 1421.92,-114.28"/>
</g>
<!-- 33&#45;&gt;52 -->
<g id="edge95" class="edge">
<title>33&#45;&gt;52</title>
<path fill="none" stroke="grey" stroke-width="2" d="M2124.25,-301.45C2007.6,-293.58 1744.04,-273.62 1709.5,-252 1659.5,-220.71 1629.68,-154.94 1616.18,-117.88"/>
<polygon fill="grey" stroke="grey" stroke-width="2" points="1619.41,-116.52 1612.8,-108.24 1612.8,-118.83 1619.41,-116.52"/>
</g>
<!-- 34&#45;&gt;33 -->
<g id="edge61" class="edge">
<title>34&#45;&gt;33</title>
<path fill="none" stroke="grey" stroke-width="2" d="M2327.63,-362.15C2300.59,-352.09 2264.49,-338.65 2234.7,-327.55"/>
<polygon fill="grey" stroke="grey" stroke-width="2" points="2235.86,-324.25 2225.26,-324.04 2233.41,-330.81 2235.86,-324.25"/>
</g>
<!-- 35 -->
<g id="node36" class="node">
<title>35</title>
<path fill="none" stroke="#567bd8" stroke-width="2" stroke-dasharray="5,2" d="M2592.5,-324C2592.5,-324 2506.5,-324 2506.5,-324 2500.5,-324 2494.5,-318 2494.5,-312 2494.5,-312 2494.5,-300 2494.5,-300 2494.5,-294 2500.5,-288 2506.5,-288 2506.5,-288 2592.5,-288 2592.5,-288 2598.5,-288 2604.5,-294 2604.5,-300 2604.5,-300 2604.5,-312 2604.5,-312 2604.5,-318 2598.5,-324 2592.5,-324"/>
<text text-anchor="middle" x="2549.5" y="-303.5" font-family="sans" font-size="10.00">remove_duplicates</text>
</g>
<!-- 35&#45;&gt;0 -->
<g id="edge18" class="edge">
<title>35&#45;&gt;0</title>
<path fill="none" stroke="grey" stroke-width="2" d="M2568,-287.96C2597.69,-258.44 2650.16,-195.98 2624.5,-144 2601.2,-96.81 2579.89,-90.17 2530.5,-72 2436.33,-37.34 1714.89,-22.66 1541.76,-19.62"/>
<polygon fill="grey" stroke="grey" stroke-width="2" points="1541.68,-16.12 1531.62,-19.44 1541.56,-23.11 1541.68,-16.12"/>
</g>
<!-- 42 -->
<g id="node43" class="node">
<title>42</title>
<path fill="none" stroke="#56d86b" stroke-width="2" stroke-dasharray="5,2" d="M2577,-252C2577,-252 2488,-252 2488,-252 2482,-252 2476,-246 2476,-240 2476,-240 2476,-228 2476,-228 2476,-222 2482,-216 2488,-216 2488,-216 2577,-216 2577,-216 2583,-216 2589,-222 2589,-228 2589,-228 2589,-240 2589,-240 2589,-246 2583,-252 2577,-252"/>
<text text-anchor="middle" x="2532.5" y="-231.5" font-family="sans" font-size="10.00">sort_bam_by_name</text>
</g>
<!-- 35&#45;&gt;42 -->
<g id="edge70" class="edge">
<title>35&#45;&gt;42</title>
<path fill="none" stroke="grey" stroke-width="2" d="M2545.3,-287.7C2543.4,-279.9 2541.12,-270.51 2539.02,-261.83"/>
<polygon fill="grey" stroke="grey" stroke-width="2" points="2542.42,-261 2536.65,-252.1 2535.61,-262.65 2542.42,-261"/>
</g>
<!-- 35&#45;&gt;51 -->
<g id="edge88" class="edge">
<title>35&#45;&gt;51</title>
<path fill="none" stroke="grey" stroke-width="2" d="M2494.5,-289.6C2491.47,-289 2488.45,-288.46 2485.5,-288 2152.2,-236.42 2054.02,-336.45 1727.5,-252 1613.51,-222.52 1492.57,-150.53 1435.32,-113.63"/>
<polygon fill="grey" stroke="grey" stroke-width="2" points="1436.98,-110.53 1426.68,-108.02 1433.16,-116.4 1436.98,-110.53"/>
</g>
<!-- 35&#45;&gt;52 -->
<g id="edge96" class="edge">
<title>35&#45;&gt;52</title>
<path fill="none" stroke="grey" stroke-width="2" d="M2494.5,-289.61C2491.47,-289.01 2488.45,-288.46 2485.5,-288 2333.82,-264.16 1939.16,-306.2 1795.5,-252 1722.05,-224.29 1657.69,-154.14 1626.85,-116.23"/>
<polygon fill="grey" stroke="grey" stroke-width="2" points="1629.42,-113.84 1620.44,-108.22 1623.96,-118.21 1629.42,-113.84"/>
</g>
<!-- 36&#45;&gt;35 -->
<g id="edge63" class="edge">
<title>36&#45;&gt;35</title>
<path fill="none" stroke="grey" stroke-width="2" d="M2593.16,-359.7C2586.21,-351.3 2577.73,-341.07 2570.1,-331.86"/>
<polygon fill="grey" stroke="grey" stroke-width="2" points="2572.75,-329.57 2563.67,-324.1 2567.36,-334.04 2572.75,-329.57"/>
</g>
<!-- 37&#45;&gt;0 -->
<g id="edge19" class="edge">
<title>37&#45;&gt;0</title>
<path fill="none" stroke="grey" stroke-width="2" d="M425.41,-215.97C409.1,-207.77 392.82,-196.12 383.5,-180 375.49,-166.15 375.27,-157.72 383.5,-144 418.49,-85.69 453,-90.26 518.5,-72 701.92,-20.88 1309.47,-18.57 1466.95,-18.85"/>
<polygon fill="grey" stroke="grey" stroke-width="2" points="1467.08,-22.35 1477.09,-18.88 1467.09,-15.35 1467.08,-22.35"/>
</g>
<!-- 43 -->
<g id="node44" class="node">
<title>43</title>
<path fill="none" stroke="#d8a456" stroke-width="2" stroke-dasharray="5,2" d="M744.5,-180C744.5,-180 664.5,-180 664.5,-180 658.5,-180 652.5,-174 652.5,-168 652.5,-168 652.5,-156 652.5,-156 652.5,-150 658.5,-144 664.5,-144 664.5,-144 744.5,-144 744.5,-144 750.5,-144 756.5,-150 756.5,-156 756.5,-156 756.5,-168 756.5,-168 756.5,-174 750.5,-180 744.5,-180"/>
<text text-anchor="middle" x="704.5" y="-165" font-family="sans" font-size="10.00">call_peak_genrich</text>
<text text-anchor="middle" x="704.5" y="-154" font-family="sans" font-size="10.00">condition: C4</text>
</g>
<!-- 37&#45;&gt;43 -->
<g id="edge71" class="edge">
<title>37&#45;&gt;43</title>
<path fill="none" stroke="grey" stroke-width="2" d="M531.23,-215.97C564.99,-205.65 608.11,-192.47 642.88,-181.83"/>
<polygon fill="grey" stroke="grey" stroke-width="2" points="643.92,-185.18 652.46,-178.91 641.87,-178.48 643.92,-185.18"/>
</g>
<!-- 45 -->
<g id="node46" class="node">
<title>45</title>
<path fill="none" stroke="#56d8b9" stroke-width="2" stroke-dasharray="5,2" d="M547,-180C547,-180 404,-180 404,-180 398,-180 392,-174 392,-168 392,-168 392,-156 392,-156 392,-150 398,-144 404,-144 404,-144 547,-144 547,-144 553,-144 559,-150 559,-156 559,-156 559,-168 559,-168 559,-174 553,-180 547,-180"/>
<text text-anchor="middle" x="475.5" y="-159.5" font-family="sans" font-size="10.00">call_peak_genrich_per_sample</text>
</g>
<!-- 37&#45;&gt;45 -->
<g id="edge77" class="edge">
<title>37&#45;&gt;45</title>
<path fill="none" stroke="grey" stroke-width="2" d="M475.5,-215.7C475.5,-207.98 475.5,-198.71 475.5,-190.11"/>
<polygon fill="grey" stroke="grey" stroke-width="2" points="479,-190.1 475.5,-180.1 472,-190.1 479,-190.1"/>
</g>
<!-- 38&#45;&gt;0 -->
<g id="edge20" class="edge">
<title>38&#45;&gt;0</title>
<path fill="none" stroke="grey" stroke-width="2" d="M675.46,-215.84C663.18,-206.87 650.19,-194.68 643.5,-180 636.86,-165.44 634.83,-157.45 643.5,-144 685.54,-78.81 727.34,-91.21 802.5,-72 930.07,-39.39 1340.21,-24.13 1466.88,-20.11"/>
<polygon fill="grey" stroke="grey" stroke-width="2" points="1467.33,-23.6 1477.22,-19.79 1467.11,-16.6 1467.33,-23.6"/>
</g>
<!-- 38&#45;&gt;43 -->
<g id="edge72" class="edge">
<title>38&#45;&gt;43</title>
<path fill="none" stroke="grey" stroke-width="2" d="M704.5,-215.7C704.5,-207.98 704.5,-198.71 704.5,-190.11"/>
<polygon fill="grey" stroke="grey" stroke-width="2" points="708,-190.1 704.5,-180.1 701,-190.1 708,-190.1"/>
</g>
<!-- 46 -->
<g id="node47" class="node">
<title>46</title>
<path fill="none" stroke="#56d8b9" stroke-width="2" stroke-dasharray="5,2" d="M930,-180C930,-180 787,-180 787,-180 781,-180 775,-174 775,-168 775,-168 775,-156 775,-156 775,-150 781,-144 787,-144 787,-144 930,-144 930,-144 936,-144 942,-150 942,-156 942,-156 942,-168 942,-168 942,-174 936,-180 930,-180"/>
<text text-anchor="middle" x="858.5" y="-159.5" font-family="sans" font-size="10.00">call_peak_genrich_per_sample</text>
</g>
<!-- 38&#45;&gt;46 -->
<g id="edge78" class="edge">
<title>38&#45;&gt;46</title>
<path fill="none" stroke="grey" stroke-width="2" d="M742.17,-215.88C763.13,-206.35 789.4,-194.41 811.68,-184.28"/>
<polygon fill="grey" stroke="grey" stroke-width="2" points="813.29,-187.39 820.95,-180.07 810.4,-181.02 813.29,-187.39"/>
</g>
<!-- 39&#45;&gt;0 -->
<g id="edge21" class="edge">
<title>39&#45;&gt;0</title>
<path fill="none" stroke="grey" stroke-width="2" d="M1005.02,-215.69C991.3,-197.06 974.69,-167.01 988.5,-144 1023.49,-85.69 1058.83,-93.01 1123.5,-72 1244.98,-32.54 1397.62,-22.46 1467.04,-19.88"/>
<polygon fill="grey" stroke="grey" stroke-width="2" points="1467.57,-23.37 1477.45,-19.53 1467.34,-16.37 1467.57,-23.37"/>
</g>
<!-- 39&#45;&gt;43 -->
<g id="edge73" class="edge">
<title>39&#45;&gt;43</title>
<path fill="none" stroke="grey" stroke-width="2" d="M962.76,-222.14C911.33,-212.06 833.57,-196.2 766.5,-180 766.4,-179.98 766.3,-179.95 766.19,-179.93"/>
<polygon fill="grey" stroke="grey" stroke-width="2" points="767.09,-176.54 756.54,-177.52 765.39,-183.33 767.09,-176.54"/>
</g>
<!-- 47 -->
<g id="node48" class="node">
<title>47</title>
<path fill="none" stroke="#56d8b9" stroke-width="2" stroke-dasharray="5,2" d="M1152,-180C1152,-180 1009,-180 1009,-180 1003,-180 997,-174 997,-168 997,-168 997,-156 997,-156 997,-150 1003,-144 1009,-144 1009,-144 1152,-144 1152,-144 1158,-144 1164,-150 1164,-156 1164,-156 1164,-168 1164,-168 1164,-174 1158,-180 1152,-180"/>
<text text-anchor="middle" x="1080.5" y="-159.5" font-family="sans" font-size="10.00">call_peak_genrich_per_sample</text>
</g>
<!-- 39&#45;&gt;47 -->
<g id="edge79" class="edge">
<title>39&#45;&gt;47</title>
<path fill="none" stroke="grey" stroke-width="2" d="M1034.58,-215.7C1041.89,-207.3 1050.81,-197.07 1058.84,-187.86"/>
<polygon fill="grey" stroke="grey" stroke-width="2" points="1061.66,-189.94 1065.59,-180.1 1056.39,-185.34 1061.66,-189.94"/>
</g>
<!-- 40&#45;&gt;0 -->
<g id="edge22" class="edge">
<title>40&#45;&gt;0</title>
<path fill="none" stroke="grey" stroke-width="2" d="M1874.3,-215.67C1887.35,-197.01 1903.07,-166.94 1889.5,-144 1855.68,-86.82 1820.81,-95.04 1758.5,-72 1684.14,-44.51 1591.99,-29.77 1541.64,-23.24"/>
<polygon fill="grey" stroke="grey" stroke-width="2" points="1541.91,-19.75 1531.55,-21.97 1541.04,-26.69 1541.91,-19.75"/>
</g>
<!-- 44 -->
<g id="node45" class="node">
<title>44</title>
<path fill="none" stroke="#d8a456" stroke-width="2" stroke-dasharray="5,2" d="M2065.5,-180C2065.5,-180 1985.5,-180 1985.5,-180 1979.5,-180 1973.5,-174 1973.5,-168 1973.5,-168 1973.5,-156 1973.5,-156 1973.5,-150 1979.5,-144 1985.5,-144 1985.5,-144 2065.5,-144 2065.5,-144 2071.5,-144 2077.5,-150 2077.5,-156 2077.5,-156 2077.5,-168 2077.5,-168 2077.5,-174 2071.5,-180 2065.5,-180"/>
<text text-anchor="middle" x="2025.5" y="-165" font-family="sans" font-size="10.00">call_peak_genrich</text>
<text text-anchor="middle" x="2025.5" y="-154" font-family="sans" font-size="10.00">condition: P4</text>
</g>
<!-- 40&#45;&gt;44 -->
<g id="edge74" class="edge">
<title>40&#45;&gt;44</title>
<path fill="none" stroke="grey" stroke-width="2" d="M1900.86,-215.88C1923.52,-206.26 1951.97,-194.19 1975.97,-184.01"/>
<polygon fill="grey" stroke="grey" stroke-width="2" points="1977.43,-187.2 1985.27,-180.07 1974.69,-180.75 1977.43,-187.2"/>
</g>
<!-- 48 -->
<g id="node49" class="node">
<title>48</title>
<path fill="none" stroke="#56d8b9" stroke-width="2" stroke-dasharray="5,2" d="M1868,-180C1868,-180 1725,-180 1725,-180 1719,-180 1713,-174 1713,-168 1713,-168 1713,-156 1713,-156 1713,-150 1719,-144 1725,-144 1725,-144 1868,-144 1868,-144 1874,-144 1880,-150 1880,-156 1880,-156 1880,-168 1880,-168 1880,-174 1874,-180 1868,-180"/>
<text text-anchor="middle" x="1796.5" y="-159.5" font-family="sans" font-size="10.00">call_peak_genrich_per_sample</text>
</g>
<!-- 40&#45;&gt;48 -->
<g id="edge80" class="edge">
<title>40&#45;&gt;48</title>
<path fill="none" stroke="grey" stroke-width="2" d="M1844.68,-215.7C1836.93,-207.22 1827.46,-196.86 1818.98,-187.58"/>
<polygon fill="grey" stroke="grey" stroke-width="2" points="1821.47,-185.12 1812.14,-180.1 1816.3,-189.85 1821.47,-185.12"/>
</g>
<!-- 41&#45;&gt;0 -->
<g id="edge23" class="edge">
<title>41&#45;&gt;0</title>
<path fill="none" stroke="grey" stroke-width="2" d="M2230.61,-215.84C2246.93,-207.67 2263.16,-196.07 2272.5,-180 2280.54,-166.17 2281.92,-156.94 2272.5,-144 2185.33,-24.25 1683.98,-17.94 1541.98,-18.59"/>
<polygon fill="grey" stroke="grey" stroke-width="2" points="1541.6,-15.09 1531.62,-18.65 1541.64,-22.09 1541.6,-15.09"/>
</g>
<!-- 41&#45;&gt;44 -->
<g id="edge75" class="edge">
<title>41&#45;&gt;44</title>
<path fill="none" stroke="grey" stroke-width="2" d="M2141.83,-215.88C2120.87,-206.35 2094.6,-194.41 2072.32,-184.28"/>
<polygon fill="grey" stroke="grey" stroke-width="2" points="2073.6,-181.02 2063.05,-180.07 2070.71,-187.39 2073.6,-181.02"/>
</g>
<!-- 49 -->
<g id="node50" class="node">
<title>49</title>
<path fill="none" stroke="#56d8b9" stroke-width="2" stroke-dasharray="5,2" d="M2251,-180C2251,-180 2108,-180 2108,-180 2102,-180 2096,-174 2096,-168 2096,-168 2096,-156 2096,-156 2096,-150 2102,-144 2108,-144 2108,-144 2251,-144 2251,-144 2257,-144 2263,-150 2263,-156 2263,-156 2263,-168 2263,-168 2263,-174 2257,-180 2251,-180"/>
<text text-anchor="middle" x="2179.5" y="-159.5" font-family="sans" font-size="10.00">call_peak_genrich_per_sample</text>
</g>
<!-- 41&#45;&gt;49 -->
<g id="edge81" class="edge">
<title>41&#45;&gt;49</title>
<path fill="none" stroke="grey" stroke-width="2" d="M2179.5,-215.7C2179.5,-207.98 2179.5,-198.71 2179.5,-190.11"/>
<polygon fill="grey" stroke="grey" stroke-width="2" points="2183,-190.1 2179.5,-180.1 2176,-190.1 2183,-190.1"/>
</g>
<!-- 42&#45;&gt;0 -->
<g id="edge24" class="edge">
<title>42&#45;&gt;0</title>
<path fill="none" stroke="grey" stroke-width="2" d="M2571.28,-215.78C2585.68,-207.24 2600.46,-195.4 2608.5,-180 2615.9,-165.81 2617.06,-157.52 2608.5,-144 2568.53,-80.83 2528.95,-90.42 2456.5,-72 2278.88,-26.84 1696.25,-20.15 1542.16,-19.17"/>
<polygon fill="grey" stroke="grey" stroke-width="2" points="1541.84,-15.67 1531.82,-19.11 1541.8,-22.67 1541.84,-15.67"/>
</g>
<!-- 42&#45;&gt;44 -->
<g id="edge76" class="edge">
<title>42&#45;&gt;44</title>
<path fill="none" stroke="grey" stroke-width="2" d="M2475.88,-228.98C2392.84,-222.48 2233.09,-207.7 2087.79,-179.87"/>
<polygon fill="grey" stroke="grey" stroke-width="2" points="2088.28,-176.4 2077.8,-177.93 2086.95,-183.27 2088.28,-176.4"/>
</g>
<!-- 50 -->
<g id="node51" class="node">
<title>50</title>
<path fill="none" stroke="#56d8b9" stroke-width="2" stroke-dasharray="5,2" d="M2587,-180C2587,-180 2444,-180 2444,-180 2438,-180 2432,-174 2432,-168 2432,-168 2432,-156 2432,-156 2432,-150 2438,-144 2444,-144 2444,-144 2587,-144 2587,-144 2593,-144 2599,-150 2599,-156 2599,-156 2599,-168 2599,-168 2599,-174 2593,-180 2587,-180"/>
<text text-anchor="middle" x="2515.5" y="-159.5" font-family="sans" font-size="10.00">call_peak_genrich_per_sample</text>
</g>
<!-- 42&#45;&gt;50 -->
<g id="edge82" class="edge">
<title>42&#45;&gt;50</title>
<path fill="none" stroke="grey" stroke-width="2" d="M2528.3,-215.7C2526.4,-207.9 2524.12,-198.51 2522.02,-189.83"/>
<polygon fill="grey" stroke="grey" stroke-width="2" points="2525.42,-189 2519.65,-180.1 2518.61,-190.65 2525.42,-189"/>
</g>
<!-- 43&#45;&gt;0 -->
<g id="edge25" class="edge">
<title>43&#45;&gt;0</title>
<path fill="none" stroke="grey" stroke-width="2" d="M734.04,-143.82C771.59,-122.9 839.05,-88.35 901.5,-72 1009.45,-43.74 1353.27,-25.89 1467.33,-20.63"/>
<polygon fill="grey" stroke="grey" stroke-width="2" points="1467.5,-24.13 1477.33,-20.18 1467.18,-17.13 1467.5,-24.13"/>
</g>
<!-- 43&#45;&gt;51 -->
<g id="edge89" class="edge">
<title>43&#45;&gt;51</title>
<path fill="none" stroke="grey" stroke-width="2" d="M756.76,-145.87C760.04,-145.17 763.31,-144.54 766.5,-144 1003.48,-104.13 1070.05,-138.21 1312.7,-107.98"/>
<polygon fill="grey" stroke="grey" stroke-width="2" points="1313.42,-111.42 1322.9,-106.69 1312.54,-104.48 1313.42,-111.42"/>
</g>
<!-- 44&#45;&gt;0 -->
<g id="edge26" class="edge">
<title>44&#45;&gt;0</title>
<path fill="none" stroke="grey" stroke-width="2" d="M2018.1,-143.89C2008.09,-123.05 1988.14,-88.56 1959.5,-72 1888.58,-30.99 1637.11,-21.66 1541.64,-19.58"/>
<polygon fill="grey" stroke="grey" stroke-width="2" points="1541.65,-16.08 1531.58,-19.38 1541.5,-23.08 1541.65,-16.08"/>
</g>
<!-- 44&#45;&gt;51 -->
<g id="edge90" class="edge">
<title>44&#45;&gt;51</title>
<path fill="none" stroke="grey" stroke-width="2" d="M1973.24,-154.04C1947.97,-150.78 1917.18,-146.97 1889.5,-144 1715.23,-125.27 1667.94,-132.68 1490.07,-107.99"/>
<polygon fill="grey" stroke="grey" stroke-width="2" points="1490.51,-104.52 1480.12,-106.6 1489.53,-111.45 1490.51,-104.52"/>
</g>
<!-- 45&#45;&gt;0 -->
<g id="edge27" class="edge">
<title>45&#45;&gt;0</title>
<path fill="none" stroke="grey" stroke-width="2" d="M487.99,-143.85C504.58,-122.62 536.08,-87.38 572.5,-72 655.95,-36.75 1304.59,-22.65 1467.48,-19.64"/>
<polygon fill="grey" stroke="grey" stroke-width="2" points="1467.56,-23.14 1477.5,-19.46 1467.44,-16.14 1467.56,-23.14"/>
</g>
<!-- 45&#45;&gt;52 -->
<g id="edge97" class="edge">
<title>45&#45;&gt;52</title>
<path fill="none" stroke="grey" stroke-width="2" d="M559.16,-151.56C586.06,-148.79 616.01,-145.97 643.5,-144 1015.57,-117.28 1113.07,-142.43 1487.9,-108.09"/>
<polygon fill="grey" stroke="grey" stroke-width="2" points="1488.3,-111.57 1497.94,-107.17 1487.66,-104.6 1488.3,-111.57"/>
</g>
<!-- 46&#45;&gt;0 -->
<g id="edge28" class="edge">
<title>46&#45;&gt;0</title>
<path fill="none" stroke="grey" stroke-width="2" d="M871.38,-143.71C888.15,-122.68 919.6,-88 955.5,-72 1047.55,-30.97 1359.38,-21.58 1467.35,-19.54"/>
<polygon fill="grey" stroke="grey" stroke-width="2" points="1467.5,-23.04 1477.44,-19.36 1467.38,-16.04 1467.5,-23.04"/>
</g>
<!-- 46&#45;&gt;52 -->
<g id="edge98" class="edge">
<title>46&#45;&gt;52</title>
<path fill="none" stroke="grey" stroke-width="2" d="M942.33,-149.31C957.67,-147.38 973.55,-145.51 988.5,-144 1207.35,-121.85 1265.84,-131.63 1487.91,-108.13"/>
<polygon fill="grey" stroke="grey" stroke-width="2" points="1488.36,-111.6 1497.93,-107.06 1487.61,-104.64 1488.36,-111.6"/>
</g>
<!-- 47&#45;&gt;0 -->
<g id="edge29" class="edge">
<title>47&#45;&gt;0</title>
<path fill="none" stroke="grey" stroke-width="2" d="M1093.85,-143.72C1110.87,-123.03 1142.34,-89.05 1177.5,-72 1274.11,-25.15 1403.73,-18.44 1466.82,-18.25"/>
<polygon fill="grey" stroke="grey" stroke-width="2" points="1467.08,-21.75 1477.09,-18.27 1467.1,-14.75 1467.08,-21.75"/>
</g>
<!-- 47&#45;&gt;52 -->
<g id="edge99" class="edge">
<title>47&#45;&gt;52</title>
<path fill="none" stroke="grey" stroke-width="2" d="M1164.36,-150.49C1244.81,-140.32 1369.99,-124.29 1487.97,-108.2"/>
<polygon fill="grey" stroke="grey" stroke-width="2" points="1488.47,-111.67 1497.9,-106.84 1487.52,-104.73 1488.47,-111.67"/>
</g>
<!-- 48&#45;&gt;0 -->
<g id="edge30" class="edge">
<title>48&#45;&gt;0</title>
<path fill="none" stroke="grey" stroke-width="2" d="M1787.64,-143.72C1776.28,-123.35 1754.65,-90.02 1726.5,-72 1669.06,-35.24 1588.53,-23.95 1541.9,-20.5"/>
<polygon fill="grey" stroke="grey" stroke-width="2" points="1541.86,-16.99 1531.65,-19.83 1541.4,-23.98 1541.86,-16.99"/>
</g>
<!-- 48&#45;&gt;52 -->
<g id="edge100" class="edge">
<title>48&#45;&gt;52</title>
<path fill="none" stroke="grey" stroke-width="2" d="M1750.27,-143.88C1723.97,-134.14 1690.86,-121.87 1663.14,-111.61"/>
<polygon fill="grey" stroke="grey" stroke-width="2" points="1664.18,-108.26 1653.58,-108.07 1661.75,-114.82 1664.18,-108.26"/>
</g>
<!-- 49&#45;&gt;0 -->
<g id="edge31" class="edge">
<title>49&#45;&gt;0</title>
<path fill="none" stroke="grey" stroke-width="2" d="M2151.37,-143.99C2115.59,-123.26 2051.27,-88.88 1991.5,-72 1828.61,-25.99 1624.64,-19.49 1541.92,-18.87"/>
<polygon fill="grey" stroke="grey" stroke-width="2" points="1541.77,-15.37 1531.76,-18.82 1541.74,-22.37 1541.77,-15.37"/>
</g>
<!-- 49&#45;&gt;52 -->
<g id="edge101" class="edge">
<title>49&#45;&gt;52</title>
<path fill="none" stroke="grey" stroke-width="2" d="M2095.89,-145.43C2092.73,-144.93 2089.59,-144.45 2086.5,-144 1964.57,-126.13 1824.39,-111.28 1727.31,-101.89"/>
<polygon fill="grey" stroke="grey" stroke-width="2" points="1727.46,-98.39 1717.17,-100.91 1726.79,-105.36 1727.46,-98.39"/>
</g>
<!-- 50&#45;&gt;0 -->
<g id="edge32" class="edge">
<title>50&#45;&gt;0</title>
<path fill="none" stroke="grey" stroke-width="2" d="M2503.01,-143.86C2486.41,-122.63 2454.92,-87.4 2418.5,-72 2336.93,-37.5 1704.6,-22.9 1542.34,-19.7"/>
<polygon fill="grey" stroke="grey" stroke-width="2" points="1541.98,-16.19 1531.92,-19.5 1541.85,-23.19 1541.98,-16.19"/>
</g>
<!-- 50&#45;&gt;52 -->
<g id="edge102" class="edge">
<title>50&#45;&gt;52</title>
<path fill="none" stroke="grey" stroke-width="2" d="M2431.71,-154.54C2269.94,-142.07 1914.13,-114.64 1727.36,-100.24"/>
<polygon fill="grey" stroke="grey" stroke-width="2" points="1727.46,-96.74 1717.22,-99.46 1726.93,-103.72 1727.46,-96.74"/>
</g>
<!-- 51&#45;&gt;0 -->
<g id="edge33" class="edge">
<title>51&#45;&gt;0</title>
<path fill="none" stroke="grey" stroke-width="2" d="M1426.7,-71.88C1439.91,-62.89 1456.29,-51.76 1470.61,-42.03"/>
<polygon fill="grey" stroke="grey" stroke-width="2" points="1472.9,-44.71 1479.21,-36.19 1468.97,-38.92 1472.9,-44.71"/>
</g>
<!-- 52&#45;&gt;0 -->
<g id="edge34" class="edge">
<title>52&#45;&gt;0</title>
<path fill="none" stroke="grey" stroke-width="2" d="M1582.3,-71.88C1569.09,-62.89 1552.71,-51.76 1538.39,-42.03"/>
<polygon fill="grey" stroke="grey" stroke-width="2" points="1540.03,-38.92 1529.79,-36.19 1536.1,-44.71 1540.03,-38.92"/>
</g>
</g>
</svg>
